<mxfile host="Electron" modified="2024-08-12T07:57:13.487Z" agent="Mozilla/5.0 (Windows NT 10.0; Win64; x64) AppleWebKit/537.36 (KHTML, like Gecko) draw.io/24.1.0 Chrome/120.0.6099.109 Electron/28.1.0 Safari/537.36" etag="GM-HGZD2HQTbDqDa-Ppz" version="24.1.0" type="device">
  <diagram name="Page-1" id="j0Mv5sjSWpUI3g2ZIlGu">
    <mxGraphModel dx="1120" dy="524" grid="1" gridSize="10" guides="1" tooltips="1" connect="1" arrows="1" fold="1" page="1" pageScale="1" pageWidth="827" pageHeight="1169" math="0" shadow="0">
      <root>
        <mxCell id="0" />
        <mxCell id="1" parent="0" />
        <mxCell id="W-mw9vOiR3bozw5V8soJ-128" value="" style="shape=image;verticalLabelPosition=bottom;labelBackgroundColor=default;verticalAlign=top;aspect=fixed;imageAspect=0;image=data:image/png,iVBORw0KGgoAAAANSUhEUgAAAu0AAAIqCAIAAAAfMeM8AAAAKnRFWHRjb3B5bGVmdABHZW5lcmF0ZWQgYnkgaHR0cHM6Ly9wbGFudHVtbC5jb212zsofAAACK2lUWHRwbGFudHVtbAABAAAAeJyVVE1v2kAQve+vGOWUVHJEUoRSn0KxQRCg1MZIVdXDxh6clexddz9oUNL/3l0DBZPQJr6sNW/mzbyZ2b1VmkptyoIUuNSgBUiWP2jImMRUM8EJQa6ZXsNZolCeAVWQxGEETwTs9wGMtQ4D8CHWkvEcvs/uftSQ59UHpyX+RWsLlpQVTVP1IDhOTXmPsglIURxFV1SpX0JmR36YM6UldRUHVLsYd5Df+/K7Wcl4XX83mAynpwX0mwKoi5tJtmIF5qj2eQ+4Y20y+1+zx/MkCKfzN/OrTeyBS23OsLKDKS1yIiNdLrf5uv3+O7LZuHfmCkuUOfJ0HeFPg2ojM5yE0SCc9r5F4dckjPd65cbpXzuxdTlRqV5XRzMvRFpPtmnVrLQktKx2w97q00Ydy1OpZFWT4bCXKFcsxcjm4Pmmp2G0GPbCqDsfTgd7ZbXDG4S9KmsTbYEh17UhFaVrufqPKltofeGenz1PPG2X1wd81Mgz1cB2q3cKdYvyOvZimj6kEm16RV5AO7pGj3ynz3rfWmr3mpBZQblOJmNYoVSu81eX163r9mXnPKYaRqaAVgdan/yrtv/xBpJ5Dxx8Qc4HszEoYWSK9hGyd5rdGze5CzKiKwqR4a5DPnypkI+Cu50BQr5iUnDXUTJaTPYOnbb3mWlwQ7avy2JCAlxSU2gbkYrMtt232fveDRlTnhuaW27kpCcsr1xbLCZ/AGpRjYOKhtjbAACAAElEQVR4XuydCVxUVf//BUETXMMNMVlCE1kUkE1ABQRLxQ0l11zQv5iipgVWDxlJaiqoGMmDS6aZivvSTxNUcoFQBBdE1FwBERBknix71PT//c35dbueWZiBgRnw837Na17nfs9yz71z4bzn3jvnNngBAAAAAFA3acAHAAAAAADqCPAYAAAAANRV4DEAAAAAqKvAYwAAAABQV4HHAAAAAKCuAo8BAAAAQF0FHgOAdjh+/Hh0dPSXAEihg4EOCf4oAQBUBjwGAC2we/fupKQkCQAi6JDYunUrf6wAAJQCjwFAC3z11Vf8IAaARBIdHc0fKwAApcBjANAC8BggFzow+GMFAKAUeAwAWgAeA+QCjwFAXeAxAGiBuuUxFRUVe/5n77Q5oR59e9nY2bRv357ee/X1fH/ujAOHD1IuXwFUFXgMAOoCjwFAC9Qhj0nal+Tm5dazl8uUiGkxSavWH/1u14X99E5pilDc3dtjz8G9fDVQJeAxAKgLPAYALVAnPKasvGza7FB7Z4fIb6LIXRS9KNfBufusebPKy8v5JoCawGMAUBd4DABaQPc9hqRkUFCgX2C/LenbZd2Fe1EZKjls5HCoTDWBxwCgLvAYALSA7nvM9Dnvk5rsyN4ryEr0xiXTF8yUff2QsYNyqaRfoP+cDz/gGwLqAI8BQF3gMQBoAR33mL0H9zo4O3yf9tKZGL9h/g3kkXhkAytA5bs79/ifQ//DN6eAioqK1NTUnJwcPkNEbGzs6tWr+WhlLF68OCEhgY/WBeAxAKgLPAYALaDLHkN60at3L9l7YpjHNGrcqGsPG/Hr29TNQhmq5d23t4q/YNq7dy812KVLFz5DRHBw8HvvvcdHKyMoKGjmzJl8tC4AjwFAXeAxAGgBXfaYIylHenq6cBIjeEwHCzPZLPHLzcs9JSWFb1QeZBteXl4NGzY8cuQIn/c3VfOYugs8BgB1gccAoAV02WNmfzhnasQ0WUFR0WP+3/zQiPkRfKMy3L1797XXXtu1a5efn9+ECROEeEVFRXR0tJOTk4eHR0JCgthjIiMj169fHxMT4+LiQrnbt2+nwosXL3Z2du7bt+/BgweFRqiF+Ph4ca1Vq1a5urp6enoKcd0EHgOAusBjANACuuwx3j69Y7avkhUU5jFNmzcdODZQeM1d+hFXjOr6+PnwjcpAOtK+ffvy8nKSjKZNm96/f5/Fo6KiaDE2NjYpKcnLy6tdu3aCx/Tp06dDhw5jxozZtm3bjBkzDAwMxo8fTw5EiyEhIUZGRjdu3GAlBw4cOHXqVKGWmZlZUFDQ1q1bFyxYoK+vv3//fpalg8BjAFAXeAwAWkCXPaabve36Y5sUeQwHBbliVNfOwZ5vVAZHR8dZs2ZRori4uHnz5uy23AcPHrRs2XL58uWsTEFBAWWJPcbZ2ZmlKyoqyGk8PT3ZIvlQq1atNmzYwBY5j+nRo4dwy46fn5+QpYPAYwBQF3gMAFpAlz3mjTfeSDq3R5HHGDczDhjxtvCavWguV4zqUgt8oy+Tnp5OTaWlpbHFCRMmeHl5USIrK4vimZmZQklfX1+xx0yfPl3IcnV1nTNnjrBoa2u7aNEiluY8RlwrJCQkMDBQWNQ14DEAqAs8BgAtoMseY2tvp+R8TKX3x1Bd+8rOx7z//vsNGzZ0/5s333xTT0/v/Pnzp0+fplXk5uYKJck5xB4jFheqOH/+fGHRzs5u4cKFLM15jLgWxSlXWNQ14DEAqAs8BgAtoMse09e3r5L7Yyr1mNikOL9+fnyjIh48eNC6devx48d/I6JTp04fffRRQUEBCc2uXbuEwtbW1vAYAIAS4DEAaAFd9piI+RH/b36orKAwj2lr1i5u7zfiV1LWSxehZn065+OPP+YbFfH999/r6+tfuXJFHIyIiDAzM3v48OHQoUOdnZ3v3LkjkQ7qVBIeAwBQAjwGAC2gyx6TkpLi7u2hyGNkEebzZS+v3l7K5495++23e/fuzQXPnTtHTe3evTsvL8/e3t7Q0LBly5akILiuBABQDjwGAC2gyx5TUVHR16fvgm++qILHLEr8ytfXV8X5fBVB1TMzMy9evMhnvALAYwBQF3gMAFpAlz2GOHTokLOLM/d8pUpfW9OTXFxdqC7fHFAZeAwA6gKPAUAL6LjHSKQ3rAwYOlD8vGvlr53Z+4YEDaFafENAHeAxAKgLPAYALaD7HlNeXj569OiBwwZtSa/8rMzW9J1Dg4ZSearFNwTUAR4DgLrAYwDQArrvMRKpykRERPR0dVn07yWy7iK8lq9f4erqSiUhMdUHHgOAusBjANACdcJjGIcOHfLx8fHu4z038sM1uxM3p24ld/n+5+1r964PXxDRu09vysU9MZoCHgOAusBjANACdchjJNIfEKWkpHz88cf+/v7du3dv3749vVOaIhSv5q+TgBh4DADqAo8BQAvULY8BtQY8BgB1gccAoAXgMUAu8BgA1AUeA4AWgMcAucBjAFAXeAwAWgAeA+QCjwFAXeAxAGgBGq6+/fbbLwEQsXHjRngMAOoCjwFAC+B8DJALPAYAdYHHAKAF4DFALvAYANQFHgOAFoDHALnAYwBQF3gMAFoAHgPkAo8BQF3gMQBoAXgMkAs8BgB1gccAoAV02WMuXbqUmZkppFOlnD59+vLly9V8BEFxcfGBAwcSExOTkpKoNT5bMYsXL05ISOCjVSU8PDxYyp07dySibRS4d+8eiwv7gXH27NkTJ06wnRAbG8sa+eWXX8Rlqgk8BgB1gccAoAV02WPGjBnj5eUlpA0MDF5//fWWLVvq6+s3b958woQJv/7668s1VCI5OdnU1LRNmzbu7u5WVlbUWlRUFMuaMmWKkJZLUFDQzJkz+WhV6dGjx4gRIzZs2HD//n2JdBupM0YiqKssLuwHYtmyZYaGhmvWrGGLKSkp1EKDBg327dsnlKk+8BgA1AUeA4AWqEMeI6RLSkr27NljY2PTqVOnW7du/VNBNaytrYcOHfrgwQO2mJube+rUKZbu37//9OnT/ylaw5DHfP7558Ii5yty45999lnjxo2///77l4tI4DEAaB14DABaoPoeM2fOnO3btwuL1OCqVatYOj09feTIkQ4ODi4uLuPGjbt27RqLJyUlkTHY29uTT5w4cYIFIyMj161bFxMT4+bmNn78eIlij2FQa0ZGRh988IE4KHDjxo3Dhw+XlZVx8eLiYhry165dy8Ul0gs0pqamZDnDpeTl5cl2KTo6Oj4+npWn3PXr19PGurq6enp6CnHi4cOHUVFRjo6OHh4eCQkJy5cvF/aJGHU9hnY1bfLevXv5EvAYAHQAeAwAWkC5x1y9epUcJSMjg88QYWdnt3DhQmGRDOC9996TSM+atGnTJiQk5ODBgzt27AgPD8/KyqI4jffGxsY0zO/fv3/+/PlNmjRJS0ujeJ8+fTp06DBw4MCNGzdSeUllHiORrotkiAsyEhMTaWi/efMmnyGRmJubOzs7Hz16tLy8XBxPTU0lsSDB2iSlsLBQtkuUnjp1KitPuWZmZkFBQVu3bl2wYIG+vj5tEcui7WrRogW5y86dO/v169euXTu2TzhkPaZXr17Ff1NaWiqOT5o0ido8cuSIUF4MPAYArQOPAUALKPGYr7/+unHjxg2kjB8/XtGttYo8Jjs7mypeuXLln6ISSVlZWevWrZcuXSpExo4dO2LECIlUC7p27SpeS6UeM3fu3Ndff50LMsiNSCbYfSccKSkplpaW1DcjIyM/P79169YJWdx1JdkucR5DIiLkUlMsiwSuadOmcXFxLE59MDExUdFj2N5mUK4Q19PTowgJk1CYowE8BgBtA48BQAso8hjyD0FiGN9++y1fSIoijyFl6datW6dOnWbPnk1DLLsfJT09nZqaPHkySUZERER4eLivr6+tra1EqgUhISFCOxIVPIZabtu2LRdUBZKP48ePL168mFZK/Zk1axaLy3oM1yXOY8SFqWRgYKBE+mMiapOdfGL4+/ur6DE9e/a89DdXr14V4t27d3d1daWdqejXVfAYALQOPAYALaDIY7Zs2SKWGGLatGl8ISmcxwwbNkwYs+/du7dy5cpBgwY1a9bMwsLiwoULx44do6bIPz4XERsbK5FqwZw5c4R2JCp4jJ+fn5ubGxdUl9DQUENDQ3YnjazHcF3iPEacS3HKlUhPBdE2kogIWQMGDFDRY2S3UYgXFBS4uLiYm5vLVRl4DABaBx4DgBZQ5DGnTp3iPCY6OpovJIWG2A8//FBYdHR0lB2zSWi6dOlC+nL79m19ff3NmzdzBSQyWiCpzGN+/vnnhg0bLl68WBysAnFxcXp6emymFhIRsa7JdkkVjykqKjIwMNi0aROLl5eXd+zYUXafSNT0GEowlSEjzM3N5crAYwDQOvAYALSAIo8hRowYIUiMlZVVYWEhX0JKWFiYtbX1rVu3KioqyAnILdiYnZOTs3v37ocPH1Ka9MXS0pJNzTJq1Cgaidm9vcSZM2fYACwrDZzHODs7Z2dnnzt37qeffvr000+bNWtGuSUlJeIqAvv376cGaeDn4qWlpcHBwcnJycXFxbSYkZFhY2NDcsByQ0ND3dzcrl+/TlpDmyPbJVU8hpg4cSJtL62FhIPaNDIy0ojHSKQq07NnT2qcu/EIHgOA1oHHAKAFlHgMKciaNWtoSP7iiy9khUCARn07OzsDAwNjY+PBgwcHBgayMZtMpW3bto0aNTIzM2vcuPGgQYPYXbdFRUXjxo2j8q1ataIBnt5XrlwpkdECiYzHMKMiTzIxMfH29l6xYoXsz6oFFP1eiaoEBAQ0adJEX1+f3qmMj4+PcA3owoUL7u7uLH727FnZLqnoMaRBo0ePph1CW0dlaNvJ9oSSAlXwGCI/P19WZeAxAGgdeAwAWkCJx6hORUUFGYDsxQ6J9H5hEprbt29z8cLCQorn5ORwP36uHUpLS6nDGRkZSvxMU9AGmpubk3XxGVKPIcshi6rOTiBXoxbgMQBoHXgMAFpAIx4DOE6ePLl69er09PSjR48GBwebmJjk5+fzhSSSwYMHd5Zy/fp1Pk9lZs+ezRphDzHQFPAYANQFHgOAFoDH1AQZGRm+vr4WFhakF8OHD8/OzuZL6DzwGADUBR4DgBaAxwC5wGMAUBd4DABaAB4D5AKPAUBd4DEAaAF4DJALPAYAdYHHAKAF4DFALvAYANQFHgOAFqDhqj0AMsBjAFAXeAwAWgDnY4Bc4DEAqAs8BgAtAI8BcoHHAKAu8BgAtAA8BsgFHgOAusBjANAC8BggF3gMAOoCjwFAC8BjgFzgMQCoCzwGAC1QTY+JjY1dvXo1H62MxYsXJyQk8NGXuXTpUqqU06dP37lzh89+GVUaFJdRpby2KC4uPnDgQGJiYlJS0uXLl/lsxWh2o+AxAKgLPAYALVBNjwkODn7vvff4aGUEBQXNnDmTj77MmDFjDAwMXn/99WbNmjVo0KBv377Xrl3jC/2NKg2KywwcOHDq1Kkv5+sEycnJpqambdq0cXd3t7Ky0tfXj4qKYllTpkwR0nJRZSeoDjwGAHWBxwCgBbTiMapAHuPl5cXSGRkZ7du3Hzp06MtFqo7Oeoy1tTVt5oMHD9hibm7uqVOnWLp///7Tp0//p2gNA48BQF3gMQBoAUUec/jwYTIJZ2dnNze3sLCwu3fvsnhFRUV0dLSTk5OHh0dCQoLYYyIjI9evXx8TE+Pi4kK527dvp8KLFy+mRvr27Xvw4EGhcWohPj5eXGvVqlWurq6enp5CXOwxxKxZs9q1aydUWbduHa2I+jZ+/HiJqEFa6bRp04RaxOrVqz/55BNxGYmMxyQlJZEl2Nvbk0OcOHGCBR8+fBgVFeXo6Mi2dPny5dRJ5VWI9PT0kSNHOjg40E4YN26c3HNIN27coN1bVlbGxYuLixs0aLB27VouLpFevzM1NSXLGS4lLy9PyU6QKN6rksq2SwAeA4C6wGMA0AKKPGbRokU0Lu7du/eHH35wd3fv1asXi9MQ2LRpUxpWaSAnzyC3EDymT58+HTp0IP/Ytm3bjBkzDAwMaHydMGECLYaEhBgZGdH4zUqKNYJqmZmZBQUFbd26dcGCBfr6+vv375fIeAw5gZWVlVCFVkSNbNy4cceOHRJRg+fOnSMVSEtLYyVpzKaS5FLiMlyaxnhjY2PaLlrv/PnzmzRpwqpTukWLFjTG79y5s1+/fuItVVSlpKSkTZs2tLEkbdSx8PDwrKwsVkVMYmIidfLmzZt8hkRibm5O2nf06NHy8nJxPDU1tUePHmROm6QUFhYq2QkSxXtVonS7xMBjAFAXeAwAWkCRx4ihEZfG3bNnzz548KBly5b0DZ7FCwoKmjdvLvYYGoNZuqKigkZZT09PtkijcqtWrTZs2MAWuRGXRmgqzxb9/PxYFnmMvb394cOHf/zxx88++4ysKCIiQqjStWtXoYrk5QZdXV2F20T27NljaGjI/Emux5SVlbVu3Xrp0qUsTowdO3bEiBFkJKRrcXFxLHj//n0TExO2pYqqUCI7O5t21JUrV4QsuZD0kExQm3yGRJKSkmJpaUmNkPbRrli3bp2QxV1XUr4TFO1VJdvFAY8BQF3gMQBoAUUeQ2P/3Llzvb29bW1tbWxs9PT06Ot7VlYWDbGZmZlCMV9fX7HHiAda8ok5c+YIi9TOokWLWJobccW1QkJCAgMDJVKPadSoEclQp06dPDw8qJ/ChRiqQsWEKpKXG1y5cmXbtm1Z4ZEjR1KWbBkhnZ6eTls0efJkEgvypPDwcNoi6ipJG8XFZ1P8/f3ZliqqIpEqTrdu3ajDs2fP3rdvn3Cbi1qQfBw/fnzx4sW0mbSiWbNmsbisxyjZCYr2qpLt4oDHAKAu8BgAtIAij3FycgoICNizZ09aWtqZM2cMDQ23bNly+vRpGgVzc3OFYjQ6ij1GLC7u7u400guLdnZ2CxcuZGluxBXXojgzD+66khiuiuTlBvPz81977bWkpKSCgoImTZpQt2XLCOljx47RFpF2fC4iNjaWtprily5dYuWJAQMGsC1VVIUVu3fvHonUoEGDmjVrZmFhceHCBaGFKhAaGkp7njmZrMco2QmK9qqS7eKAxwCgLvAYALSAXI+5du0ajXbnzp1ji+ymExICMgM9Pb1du3YJJa2trXXNYyTSXyAPGTIkLi6udevWwkkRuR5z+/ZtfX39zZs3C3UZRUVFBgYGmzZtYovl5eUdO3ZkW6qoCgcJTZcuXUh3+Ax1oE2gHU5NSaR9Ft/CrHwnKNqrSraLAx4DgLrAYwDQAnI95v79+4aGhitWrJBIb4Lx9fWl0ZSd2Bg6dKizszObmI7q0oiugx5DptW4cWN7e3vxCQy5HkOMGjXKwsJCuDX4zJkz+/bto8TEiRMtLS2Tk5Nzc3NDQ0ONjIyELVVUJScnZ/fu3Q8fPpRIdYeqy53xZf/+/bQJtGO5eGlpaXBwMK2xuLhYIv21uY2NjYuLC8ulPri5uV2/fp20pqKiQvlOULRXJUq3Sww8BgB1gccAoAXkegyxbNmyRo0atWvXztjY+Msvv6TRjnlMXl4e+QFZTsuWLWmw1MHrShLpaQZTU9MGDRoIk69wZcTpoqKicePGGRgYtGrVijaT3leuXCmRnlAZPXo0bT5FaHWDBg0KCwtTXoXMpm3btrTfzMzMSKSoitybeRX9XqmsrCwgIKBJkyZkh/ROZXx8fIRrQBcuXKBdyuJnz55VvhMU7VWJ0u0SA48BQF3gMQBoAUUeI5HeaJKeni572qCioiIzM/PixYtcvE5TWFhIFpKTk8P94JlBQXNzc3aCSkBRlStXrlD89u3b4qDqlJaWkrJkZGTI7nmNI3e7GPAYANQFHgOAFlDiMa84J0+eXL16NZnc0aNHg4ODTUxMSOz4QnUQFbcLHgOAusBjANAC1feYkpISPlQvyMjI8PX1tbCw6Ny58/Dhw7Ozs/kSdRMVtwseA4C6wGMA0ALV9Jhbt2517969vqrMqww8BgB1gccAoAWq6TGLFi0SJmoD9Ql4DADqAo8BQAt8+eWX/AimMqWlpfb29nIfIQTqOvAYANQFHgOAFti+fTt7ymAV2LBhQ3BwMB8FdR86JHbv3s0fKwAApcBjANAOJ06cWFwl7Ozspk+fLiwuXLhQlAnqMHRI8EcJAKAy4DEA1CVSU1N9fHxY+o8//li6dKmTk9Pjx49fLgUAAK8K8BgA6hKjR4/eunXr8+fPd+7c6ejo+P777xcWFvKFAADglQEeA0Cd4erVqw4ODmlpae+8886AAQMyMzP5EgAA8IoBjwFA53j27Fl8fLy/v/+bb75J75SmCMVDQ0N9fX2dnJx27tz5/PlzvhoAALx6wGMA0C1IWYYPHz5+/Pjz588/evSI3ilNkZKSkvbt21tZWfn5+Y0bN27evHnLli3btGnTTz/9RGWKioqY6wAAwCsFPAYA3eLrr78mTeGCFKF4WVkZ+cqFCxfIXTZv3kweQzZDluPv79+9e3dzc/O//vqLqwgAAPUbeAwAukX//v3Pnz/PBSlCcS7IAYkBALyCwGMA0C2sra1/++03LkgRinNBAAAA8BgAdIv+/fufOXOGC6pyPgYAAF5B4DEA6BDPnj0bP368hYXFH3/8IY6z+2PEEQAAAC/gMQDoDrm5ue+8886IESMGDBgg+3sl/BwJAABkgccAoH2ePHmyfPlyW1vbLVu2vFA8fwwAAAAOeAwAWubKlSv9+vUbP358UVERnwcAAEAp8BgAtMbz588TExNtbW23bdvG5wEAAFABeAwA2iE/P3/kyJGDBg26c+cOnwcAAEA14DEAaIHvvvvO1tb266+/xo0vAABQHeAxANQqt2/fHj58+MCBA69fv87nAQAAUBN4DAC1xLNnz/79739369aN3vEMAQAA0AjwGABqg7y8vAEDBgQFBd2+fZvPAwAAUFXgMQDULE+ePImNjbW1td28eTOfBwAAoHrAYwCoQc6fP+/r6/vee+9hbhgAAKgJ4DEA1Ah//vnnwoULHRwcdu/ezecBAADQEPAYADTPL7/80qtXr9DQ0AcPHvB5AAAANAc8BgBN8ttvv82fP9/R0fHw4cN8HgAAAE0DjwFAYxw7dszZ2XnevHkSiYTPAwAAUAPAY0Cd4d69e7/99hsfrSolJSXm5ubl5eV8RpV4+PBhWFiYm5vbyZMn+TwAAAA1BjwG1BmcnZ2//fZbPlpVioqKGjRoUFpaymeoz4EDB3r06BEZGfn777/zeQAAAGoSeAzQMs+ePTt37lx6erpwruWPP/4oKCgQCjx+/Dg/P5+Ew8HBITY2ltIlJSWK6hLFxcXkExUVFT///LPsIxgfPnx4/Pjxmzdvch5z7dq1Y8eOZWVlPXny5OUayqB1TZ48uXfv3pmZmXweAACAmgceA7RJXl5e586du3bt6uXl1aZNm0OHDr2QqoaFhcWKFStYmcDAwGHDhn3yySdGRkYUd3Z2njhxoqK6RPfu3adOnfrmm2+6ubm99tprX3/99d9re5GamtqiRQtq4a233po2bRrzmL/++isoKKhDhw7+/v49evQICAgQyitn27ZtdnZ2S5YsUUt9AAAAaBB4DNAaz58/d3d3j4yMZIv79u1r164duzSTkZFhbGx85syZmJgYchcymxcvX1dSUpc8hnTkP//5D6V37tzZrFkz9jAjeifpWbhwIas+atQo5jEXLlygdQmXhFS5RTc/P5+qk/Hk5OTweQAAAGoReAzQGjdv3iST+Pnnn7P/pkWLFr/88gvLjY2NNTMzI8Mgp2ERsccoqUses2rVKlaMBIiKsatUV65cobRwBSo9PZ15DElJo0aNFi1adO3aNZalBBKg9evX29rarl69+unTp3w2AACA2gUeA7QGWYi+vn7/l0lLS2O5JB+kF15eXkJ5sccoqUseIzzJ6PHjxyQr169ffyG9qNS0adP/a+vFi9u3bwv3x/z0009vv/22kZGRlZXV9u3bhTIcN27cGCyFEnweAAAAbQCPAVqDmYT4ll6BZ8+e9enTZ8yYMW+88UZ8fDwLuri4bNiwgaWV1FXkMfRO6bKyMpZFJiR4DOO///1vXFycoaEhuyYl5unTp6tXr7a1tV2/fv3z58+5XAAAANoCHgO0ia+v78iRIx89evRCesnm2LFjZDCU/te//mVnZ/fHH3+cOnXK2Nj4/PnzFBwyZMjcuXPZzS5K6iryGMLJyWnOnDkvpMryzjvvMI8hJbp69SorcPr06YYNG3Kz1OTk5Pj7+48aNSo/P18cBwAAoHXgMUCb3Lt3b9CgQU2bNn3rrbdatmzZo0ePJ0+epKSkNGvWLDc3l5X58ssvKZfcgiSja9eujRo18vT0VFT3hVKPycrKMjMz69ixo6mp6WeffcY8hppt1aoVBW1tbSmxZs0aVpigBhcvXkxGpeRiUw1Ba1y0aNEyUL/YtWsX/0kDAKoHPAZoH3KUK1euVG1qXXXrkpqQIVVUVIiDz549u3Xr1tWrV8l7hODZs2e9vb0nT55cXFwsKlsbnDhxYufOnRJQ76CPlT5c/vMGAFQDeAwAPL///ntkZGSPHj0OHDjA59UKixcvJtPix0BQ96GPddGiRfznDQCoBvAYAF6Cvi67urqGhYWxSWu0AnkMPwCC+gJ9uPznDQCoBvAYAP4PGmPmzZvn7Ox87NgxPq92gcfUY3A+BgDNAo8B4H85fPiwo6Pj/PnzNfhI7SqjdY+pqKhISUn5+OOP/f39u3fv3r59e3qnNEUojmte1QEeA4BmgceAV50HDx6Ehob26tVLmEpY62jXYw4dOtTXp69nb8+wT2ev2LF6/dHvdl3YT+9f70qYGznPu4+3j48PleGrAdWAxwCgWeAx4JVm9+7dDg4OCxcu/PPPP/k87aEtjykvLw8PD3dycf58zUJyF0WvpWuXu7i6REREUHm+CVAZ8BgANAs8BryiFBUVvffee76+vmySPZ1CKx5DUvLuqHf7D3lnS/p2WXfhXj+k7xgSNHT06NFQGXWBxwCgWeAx4FXk+++/t7W1jY2NZVPn6Rpa8ZiPwsMDhvTfkb1X1lrkvqgkqUxERATfEFAKPAYAzQKPAa8Wd+7cGTFixDvvvJOXl8fn6Qy17zGHDh3q0dPx+7SXzsREb1wyfcFM2dcPGTtYga2/7HBxdcG9MmoBjwFAs8BjwKvCX3/9lZiYaGtru2bNGvYkJp2llj2moqKid9/ekd9EcWdc/Ib5N5BH4pENQpkla5f6+vqq8gum4uLiAwcO0EeQlJR0+fJlPlt9YmNjV69ezUd1HngMAJoFHgNeCa5fvz5o0KBhw4bdunWLz9M9atljUlJSXD3dOIkRPKZR40Zde9iIX9+mbhYX8+7jTS3wjb5McnKyqalpmzZt3N3drays9PX1o6KiWNaUKVOEtFoEBwe/9957fFRlqrzeagKPAUCzwGNAPefp06crV660tbX97rvvnj9/zmfrJLXsMfPC502NmKbIYzpYmMlmiV8fRM77+OOP+UZfxtraeujQoQ8ePGCLubm5p06dYun+/ftPnz79n6IqU02PqfJ6qwk8BgDNAo8B9ZlLly7169dvzJgxhYWFfJ4OU8se4+3TO2b7KllBUdFjViZ9TTuZb1REcXExtbN27Vo+Q3ptyNTUlCxnuJS8vLw5c+Zs375dKPDVV1+tWrWKpSsqKqKjo52cnDw8PBISEjiPSUpKIjWxt7cnYTpx4gQLRkZGrl+/nlpwdXX19PSMj49ncdn1Cu3UNPAYADQLPAbUT/773/+SDdjZ2e3YsYPP03lq2WO62Xdbf2yTrKAwj2navOnAsYHCa+7Sj7hiVNfBwYFv9GXMzc2dnZ2PHj3K/U47NTW1R48e5B+bpJBu0ke2cOFCoQBJhiArUVFRTZs2JQUhZfHy8mrXrp2QRYJibGxMBfbv3z9//vwmTZqkpaVRvE+fPmZmZkFBQVu3bl2wYIG+vj4VkMhb798rrHHgMQBoFngMqIecPXvW29t7ypQpJSUlfF5doJY9puMbHZPO7VHkMRwU5IpR3TfeeINv9GVSUlIsLS2pupGRkZ+f37p164Qs7vqOIo958OBBy5Ytly9fzuIFBQXNmzdnWWVlZa1bt166dKlQa+zYsSNGjJBIPYZ8RbgNmVY9depUlsZ1JQDqB/AYUK/4/fffIyMjaeg6ePAgn1d3qGWP6Wan7HyMcTPjgBFvC6/Zi+ZyxaiuvYM936gMJBPHjx+nTSO3oGZnzZrF4ip6TFZWFtXKzMwUsnx9fVlWeno6ZU2ePHn+/PkRERHh4eGUZWtrK5F6jLjxkJCQwMBAlobHAFA/gMeA+sPJkyddXV3DwsJoyOTz6hS17DFefb2qc38M1fXr58c3qpTQ0FBDQ8OysjKJjE9wHjNs2DAmK6dPn6bO5ObmCllkJCzr2LFjlDV79uzPRcTGxkqkHjNnzhyhytSpUwcOHMjS8BgA6gfwGFAfoOFh3rx5zs7ONKTxeXWQWvaYmfPCqvN7pekfz6z090occXFxenp69+7dozSJxbRp04QsLy+vDz/8UFh0dHRkslJQUEBVdu3aJWRZW1uzrNu3b+vr62/evFnIElDiMdx6aw14DACaBR4D6jxHjhxxcnKaP3/+b7/9xufVTWrZYw4dOdzT00VWUJjHtDVrF7f3G/ErKeulm2k8vHspnz+mtLQ0ODg4OTm5uLiYFjMyMmxsbFxcXFhuaGiom5vb9evXSWsqKirCwsJIUG7dukVp0p2GDRsKN/MOHTqUVPXOnTsS6e+YyF2ErFGjRllYWLB7e4kzZ87s27dPotRjuPUKZWoaeAwAmgUeA+owZWVl77//voeHR3p6Op9Xl6llj6FR3KN3r6rN5/vZN1F9ffoq9wD6mAICApo0aULmQe/Ugo+Pz6VLl1juhQsX3N3dWfzs2bMkFnZ2dgYGBsbGxoMHDxYuHhF5eXn29vaGhoYtW7YkQRFnFRUVjRs3jmq1atXKyMiI3leuXClR6jHceoUyNQ08BgDNAo8BdZW9e/c6ODhERUU9fvyYz6vj1LLHELv373ZwduCer1Spx1B5x55OKj5fqbS0lNQhIyOjoKCAz3sZsiIqKb4VRpyVmZl58eJFPkNKYWFhWlpaTk6OLj+FGx4DgGaBx4C6x/379ydOnNi3b9/s7Gw+r15Q+x5DTJ/zvl9gP7Wed+0/OOCj8I/4hoBS4DEAaBZ4DKhjbNu2zc7ObunSpU+ePOHz6gta8Zjy8vJBQYGkMlvSXzorI/dFZfoN9h/5brAun/nQTeAxAGgWeAyoMxQUFIwaNSogIODy5ct8Xv1CKx4jkapM6Jzp9s4OsvfKiF+U2925x7yP5kFiqgA8BgDNAo8BdYDnz59v3LjR1tY2Li7u6dOnfHa9Q1sew9i5f5e7t3vPXi5TIqbFJK1af/Q7chd6pzRFenq6ePb2+vF/fuSrAdWAxwCgWeAxQNe5devWsGHDAgMDr1+/zufVU7TrMRLp7bQHf/rx/bkzvHy8utl3a9++Pb17+3jP/nDOkeQjyn+dBJQDjwFAs8BjgO7y119//fvf/7a1tU1MTKQ0n11/0brHgJoDHgOAZoHHAB3l2rVrAwcODAoKun37Np9X34HH1GPgMQBoFngM0DmePn26cuVKW1vbTZs28XmvBvCYegw8BgDNAo8BukVOTo6/v/+YMWMKCwv5vFcGeEw9Bh4DgGaBxwBd4cmTJ0uWLLGzs0tKSuLzXjHIY7799tsvQb1j48aN8BgANAs8BugEWVlZffr0mTRpUnFxMZ/36oHzMfUYeAwAmkW+x9Af27Jly+jL8WLwSkIffUxMDB0G/JFRAzx+/DgqKqp79+779u3j815VFsNj6i/wGAA0i3yPWb58eX5+Pv/3B14l6ACIjY3ljwxN88svv3h4eEyfPr28vJzPe4WBx9Rj4DEAaBb5HvPll1/yf3zg1WPJkiX8kaE5Hj169PHHHzs6Ov7000983isPPKYeA48BQLPAY4BCaDTljwwNkZqa6uLiMnfuXEmtXLqqc8Bj6jHwGAA0CzwGKKQmPIaanTdvHkkMqQyfB/4GHlOPgccAoFnqlcdUVFSkpKR88NHc3r69be1t27dvT+/evr3xUJiqoXGPSU5OdnJymj9//qNHj/g8IEKXPebSpUuZmZlCOlXK6dOnL1++XJ0/seLi4gMHDiQmJiYlJVFTfLZSaHclJCTw0aoSHh4eLOXOnTsS0TYK3Lt3j8WF/cA4e/bsiRMnaCfExsayFn755RdxAQY8BgDNUn885sf/+dGrj5eLp6uih/T26u158MeDfDWgGA16DP1zDwsLc3NzS0tL4/OADLrsMWPGjPHy8hLSBgYGr7/+esuWLfX19Zs3bz5hwoRff/315RqVQ4Jramrapk0bd3d3KysraioqKoplTZkyRUgrIigoaObMmXy0qvTo0WPEiBEbNmy4f/++RLqN1B8jEdRbFhf2g0T6A09DQ8M1a9ZQmr5NUfUGDRrs27dPKCAAjwFAs9QHjykvL5/30bzuzj0iv4kid1H0olwH5+6z582h8nwTQB6a8phDhw7R2BAZGfnHH3/weUAedchjhHRJScmePXtsbGw6dep069atfyqogLW19dChQx88eMAWc3NzT506xdL9+/efPn36P0VrHjpWP//8c2GR8xW58c8++6xx48bff/+9uAA8BoDaoc57DEnJyHdH9gv035K+XdZduBeV8QvsN2zkcKiMKlTfY8rKykJDQ3v16nXmzBk+Dyimmh4zZ86c7du3C4tfffXVqlWrWDo9PX3kyJEODg4uLi7jxo27du0aiyclJZEx2Nvbk0+cOHFCqEv2uW7dupiYGDc3t/Hjx0sUewyDGjQyMvrggw/EQcaNGzcOHz5MhwQXLy4upiF/7dq1XJyIjY01NTUlyxkuJS8vTyKvS9HR0fHx8Sxr/fr1tLGurq6enp4syHj48GFUVJSjo6OHh0dCQsLy5cuFfcKhrsfQ3qZN3rt3L1cAHgNA7VDnPebD8A/9BwfsyN4ray1yX1TSL9B/zrw5fENAhmp6zP79+7t3706Dx59//snnAaUo8RjyAPreTwVOnjzJ5/2NnZ3dwoULhUUygPfee08iPWXSpk2bkJCQgwcP7tixIzw8PCsri+I03hsbG9MnRR/Z/PnzmzRpkpaWxur26dOnQ4cOAwcO3LhxI1WRVOYxEunqyIe4IJGYmEhD+82bN/kMicTc3NzZ2fno0aPcF4zU1FSyChKsTVIKCwsl8rpE6alTp7IsMzOzoKCgrVu3LliwQF9fn7aINUXb1aJFC3KXnTt39uvXr127dmyfyCLrMSTixX9TWloqjk+aNImaPXLkiFBeAB4DQO1Qtz3mfy9Y9HT8Pu2lMzENFCAUoPLdnbv/+D8/8s3JcPbs2ZycHHHk9u3b9L+1Ovcz1iGq7DE0XtJg2bt373PnzvF5QAUUecz9+/dpvGfHMw3S0dHRfAkpijwmOzubKl65cuWfolIxat269dKlS4XI2LFjR4wYwdJkBl27dhUf8JV6zNy5c19//XUuSJAbkUywm044UlJSLC0tqW9GRkZ+fn7r1q0TsmSvK8l2SewxZCFCFjXF4nRANm3aNC4ujsWpDyYmJqp7jPjfCOUKcT09PYqQMwmFxTSAxwBQK9Rhj6H/Vn18+sjeEyP+pyNGXIZqefXxqlRHevbsyf2zY98p6WuZOFhfqZrH7Nq1i76O0z/rJ0+e8HlANRR5zBdffCE+pA0NDYULQ2IUeQwpS7du3Tp16jR79mwaYtn9KOnp6dTU5MmTSTIiIiLCw8N9fX1tbW1ZXTIDUlKhKYkKHkONt23blgtWCv0xHj9+nDac1kj9mTVrFovL9RiuS2KPERemYoGBgRLpFxJqk518Yvj7+6vuMfR/4NLfXL16VYh3797d1dWV9qfcH1g1gMcAUCvUYY+h73DuXu6cxIg9RjZL/HLxdKUW+EZfBh7DHxlKKSoqmjBhAo2CFy5c4POAOijymHfffVc4vBkHDhzgC8l4zLBhw4TD+N69eytXrhw0aFCzZs0sLCzokzp27Bi1Q/LxuYjY2FhWnsxgzpyXLsJW6jF+fn5ubm5cUC1CQ0NJ0didNHI9huuS2GPEWRSkLIn0VBBtI1mIkDVgwADVPUZ2G4V4QUGBi4uLubm5rMo0gMcAUCvUYY+hr4//b36orKAI/+Jls8SvqRHT5ob/73yySlDuMYpumZQouGtS9v5EHUctj9m2bRsNn8uWLcNpmOqjyGOioqKEw5swMDAQTg+IofH1ww8/FBYdHR1lx2wSmi5dupC+3L59W19ff/PmzVwBhqw0KPeYn3/+uWHDhor6ryJxcXF6enpsmhYSkWnTpolzZbtUqceQYdO+2rRpE4uXl5d37NhRdp8w1PIYSjCVISnMzc0VF2gAjwGgVqjDHuPj5xOzfZWsoAj/5WWzxC+q29unD9/oyyjxGEW3TEoU3zUpe3+ijqOixxQWFtL/dH9//5ycHD4PVAlFHnD//n0aZdnhTSO9oolVwsLCrK2tb926VVFRQU5AYsEOY/qAdu/e/fDhQ4n0Ti9LS0vWwqhRo2gYFu7tPXPmjDAAy0oD5zHOzs7Z2dnnzp376aefPv3002bNmlEu/XWIqzDoz4Fao1Gfi5eWlgYHBycnJ7OvBxkZGTY2NmQGLDc0NJS8//r166Q17EKwbJcq9Rhi4sSJtL20FrINatPIyEhTHiORqgz9r6D2xfcewWMAqB3qsMfY2duvP7ZJVlAEjxEjW4zq2tr/300AilDiMXJvmZQovWuyj8z9iTqOKh7z/fff29rarly58unTp3weqCqKPIZ48ODBd999t3DhwuPHj/N5f0Ojvp2dnYGBAfn04MGDAwMD2WFMptK2bdtGjRqZmZk1btx40KBB7K7boqKicePGUflWrVrRAE/v9IGypmSlgfMY9vdFqmRiYuLt7b1ixQrZX1YzFP1eicoHBASQ7uvr69M7lfHx8RGuAV24cMHd3Z3Fz549K5HXJVU8hjRo9OjRtENo66gMbTvZnlBSTBU8RiJ9PjynMg3gMQDUCnXYY954442kc3tkBeVvdXkJ2WJUl1rgG30ZJR4j95ZJidK7JvvI3J+o44g9RnYKu7t379LX6Hfeeefq1atcFqgmSjxGRUiXyQC4Kx0MGmhJaG7fvs3FCwsLKZ6Tk6OV2ZVKS0upwxkZGbInbDQObaC5uTkpF58hhTyGRIdEqsr7gVyNqjeAxwBQK9Rhj7F3qOR8jGyW+CU9H2PHN/oyffv2HT58uDgSExNDX2fZmXnZWyYpqOSuSdnvkToOjaZMX+jd2dmZ/juzw+P58+cbNmwgOYuPj3/27NlLhw7QBNX3GMBx8uTJ1atX09eMo0ePkn+bmJjk5+fzhaQMHjy4s5Tr16/zeapBf/6sBfYEAw54DACapQ57jK+fbzXvj+nj25dv9GUmTZpkY2MjjkydOrVLly7iiER0y6REetuBorsm65zHLFy4sGfPnr/++isdEomJiUOGDCGDoW/zw4YNCwwMvHHjBn/cAA0Bj9E4GRkZvr6+9H2D9IK+nGRnZ/Mlagt4DACapQ57zMcff/z+JzNlBUVFj5k6PzQiIoJv9GVSU1PZ3ZQlJSUPHz7cvXu3sbEx/RuSKL5lUqL4rsk65zE0mpKQ+fv7P3nyhAyGPCYkJMTMzCw+Pv6vv/7iDxqgOeAx9Rh4DACapQ57TEpKSi/vXrKCIngMB1fMzcu90vljiBUrVrBn+TZu3NjQ0JAGcnYrjKJbJiWK75qsix5DB8PEiRO/+OKL8vLy4OBg2tgjR47whwvQNPCYegw8BgDNUoc9pqKiwsfX5/M1C6vgMZHfRPXx6aviT4fKysrOnj1L4kKCwmUpumVSou27JjUC8xjqfzcpZDNr1qxhV5f4IwZoFHhMPQYeA4BmqcMeI5E+X8nZxZl7vlKlLyrv2NOJ6vLNgZeh0fTJkydRUVHMY0ho2NWlxMRE/ogBGgUeU4+BxwCgWeq2xxAREREDhg1U63nX/Ye8HR4ezjcEZKC91K9fv0mTJpHBkM1MnDiRjo2bN2/27NlT9mfYQIOQx7QH9RR4DACapc57DA2xo0ePJpXZkl75WRkqQxLz7qh36+61nlqjuLi4c+fOmzdvZofEkydPyGnYIiSmpsH5mHoMPAYAzVLnPUYiVZmIiAhnl55fJHwp6y7Ca8E3Xzi5OIeHh0NiVGThwoXio+LXX3/FmZjaAR5Tj4HHAKBZ6oPHMA4dOuTj4+PZ2zPs09mxSXHrj35H7kLvMUmr3v9kZi/vXn19+uKeGLUQz+fLgMTUNGwPw2PqMfAYADRL/fEYifQXTCkpKR9//HE/f3+H7g7t27en937+/ShCcRV/nQQEZD0G1ChXr15lZ7zgMfUYeAwAmqVeeQzQLPCY2oT0pXfv3tu3b3+B8zH1GngMAJoFHgMUAo+pTWbNmjV79myWrh2PiY2NXb16NR+tBpcuXcrMzBTSqVJOnz59+fLl6pwNLS4uPnDgQGJiYlJSEjXFZyuGdmNCQgIf1TbwGAA0CzwGKAQeU2ts27atd+/ewu1HannMlClThGdiqEVwcDD3OHe1kF3vmDFjvLy8hLSBgcHrr7/OpsNu3rz5hAkTfv31V3F5VUhOTjY1NW3Tpo27u7uVlRU1JaxUtgMcQUFBM2fO5KPaBh4DgGaBxwCF6JrH3Lt377fffuOjVaWkpMTc3Ly8vJzPqHWuXr1qa2tL70JELY/p37//9OnT+agKVNNjZNfLeYyQpl29Z88eGxubTp063bp1658KKmBtbT106FD2MBAiNzf31KlTLC3bgToBPAYAzaLQY7799tsvwSvMxo0bdc1jnJ2d6bDko1WlqKioQYMGpaWlfIamefbsWXx8vL+//5tvvknvlKaIkCu+LUbgS3lfJNLT00eOHOng4ODi4jJu3Lhr165JpNeGTE1NabAfLiUvL2/OnDnUmlDrq6++WrVqFUtXVFRER0c7OTl5eHgkJCRwHpOUlERmYG9vT95w4sQJFoyMjFy/fj214Orq6unpSZ1ncdn1ShR7DIM6bGRk9MEHH4iDjBs3bhw+fLisrIyLFxcX02e0du1aLi5R0AHq7bp162JiYtzc3MaPH08bK3RY0YYQDx8+jIqKcnR0ZLtl+fLlwh6rCeAxAGgWhR7D//GBV4/a8Rga1M+dO0eDtHCuhYb2goICocDjx4/z8/NJOGgIp9GL0vT9XlFdgga/33//ncbsn3/++c6dO0KcQYPW8ePHb968yXkMjbLHjh3Lysp68uTJyzWqBfWQRlkaU8+fP//o0SN6pzRFBJURbouhraYO0z4PDAy0sLAQzkAwaJPbtGkTEhJy8ODBHTt2hIeHU1cl0key9+jRg/xjk5TCwkI7O7uFCxcKFWldgqzQaN20aVPah6QsJBnt2rUTsmhcNzY2pgL79++fP39+kyZN2APb+/TpY2ZmFhQUtHXr1gULFujr61MBibz1SirzGIm0M+RJXJBITEykz4I+FD5DIjE3Nyd/PXr0KDftk9wOUG87dOgwcOBAsnDaS5SYOnUqK69oQwja3hYtWpC77Ny5s1+/fuLdUhPAYwDQLPAYoJBa8Bj6Gt25c+euXbvSmEfj9KFDh15IVYMG8hUrVrAyNK4PGzbsk08+oW/zFKdRjT0hQW5donv37jR6vfnmm/Sl/LXXXvv666//XtsLGvxoxKIW3nrrrWnTpjGP+euvv2h4o/HP39+fhsaAgAChfPWhtY8bN44LUoT16ttvv6XOkHbQNlKHBw8evGTJkhMnTohFhJGdnU29vXLlCheXyFxeUeQxJEYtW7Zcvnw5i5MpNm/enGWVlZW1bt166dKlQq2xY8eOGDFCIh3+aZ8Id+n6+fkJZiB7WadSj5k7d+7rr7/OBSXSp8eTTAhPjBeTkpJiaWlJ206fPq193bp1QpZsB6i3dDwIveU8Ru6GkCCS28XFxbE49cHExAQeA0AdAh4DFFLTHvP8+XN3d/fIyEi2uG/fPvoq/Pvvv1M6IyPD2Nj4zJkzMTEx5C5kNi9evq6kpC55DI1Y//nPfyhN37CbNWtGpkJpeqdBjk1STNVHjRrFPObChQu0LlaXoA1nCY1AY+358+e5IEUoTiNo+/btu3XrFh4eTu7y+PFjoYDs/TGkGlSyU6dOs2fPpo0Vn61R0WOysrJoe4XfExG+vr4sKz09nbImT55MMhEREUH9oSxbW1uJdPgXNx4SEkLKxdKyGlGpx1Dn27ZtywUrheTj+PHjtE+oM9TPWbNmsbhsB6gA9VBY5DxG7oacPXuW2mQntxiks/AYAOoQ8BigkJr2mJs3b9IQ8vPPP2f/TYsWLX755ReWGxsba2ZmRoZBTsMiYo9RUpc8ZtWqVawYCRAVY1eprly5QmnhChQbvMlj8vPzGzVqRKPLtWvXWJYGsba2lr03mSIUp8SdO3doMx0cHGjUT01NFQrIegxx7969lStXDho0iMyM3I70i8WVe8ywYcPYqHz69Gna3tzcXCGLBnKWdezYMcoiyfhcBHVMIh3+58yZI1QhLSA5YGlZjajUY/z8/Nzc3LigWoSGhhoaGrI7aWQ7wPWW8xi5G5KWlkbbfunSJSFrwIAB8BgA6hDwGKCQmvYYshB9ff3+L0PjCssl+SC9oLFQKC/2GCV1yWOEx1s+fvyYRqnr16+/kF5Uatq06f+19eLF7du3mcdQ+qeffnr77beNjIysrKy4W26rQFFR0YEDByIjI9955x1SsczMTK4AOx8jLP73v//dunWrjxRK0KJcjxEgoenSpQtpB1uk8XjatGlCLu2xDz/8UFh0dHRkozLtTz09vV27dglZ5FIsi3YF7UzaaUKWgKLhXyKzXkllHkMfWcOGDZVvWqXExcXRVtAekMjrQBU8hj4sAwODTZs2sXh5eXnHjh3hMQDUIeqex9TvubbCw8ODpdA3dRYRb6MQZHHxNQKJ9Az5iRMnaCfQN2nWyC+//CIuoC417THMJMS39Ao8e/aMBh4aC9944434+HgWdHFx2bBhA0srqavIY+id0vRVnmXRsCp4DIMEgoZJ+rrPrkmpztOnTy9evLh27drQ0NCePXt269Zt4sSJX3/9dUZGxsqVK5XcH8NBXaJNdnBwGDZsGG2g+LPIycnZvXv3w4cPJVLtsLS0FKZOoZW6ubnR1tHoTp9+WFgYCcqtW7coTZtD6iCMykOHDiUXZEfRV199Re4iZI0aNcrCwoLd20ucOXNm3759EsXDv0RmvRIZj6F1ZWdnnzt3jjTx008/bdasGeWWlJQIrQns37+fVkSfJhenT4cO4+TkZPrzpEXanzY2NnQYsFzZDlTBYwj6sGh/0lpyc3OpTdJZeAwAdYi65zHc/8p6NtdWjx49RowYQaO1cM+jsI00DNC427dvX/aDW+777rJly2gAXrNmjUR6ayS1QIXZUFRlatpjCF9f35EjRz569OiF9J6VY8eOsR/y/Otf/7Kzs/vjjz9OnTplbGzMbjEZMmTI3Llz2c0uSuoq8hjCycmJBrMXUmV55513mMeQFghzt5As0sAveyVIFvKhQ4cORUdHkxzQMePn50cOShJ848YNcbFKf68kC32+1BpthXjIJ8No27Zto0aNzMzMGjduPGjQIOEIuXDhAh23TZo0oc0hl6WNpV1Hxwztt8GDBwsXj4i8vDx7e3s6TujvhcZ1cVZRURHZFdVq1aoVDeT0TgYmUTr8c+uVyPxtNpBC+9PExMTb23vFihWyv6xmKPq9EpUPCAigVdCfJFuRj4+PcA1ItgNV8xjSoNGjR9Puoq2mMrRvyQWFkhoHHgOAZqnzHiOk68dcW+Qxn3/+uTgi3kb6Ptq+fXvqKhf/7LPPaGz7/vvvhVpEnfAYGkJo2GjatOlbb71Fgytt/pMnT8jDSNroU2Bl6GikXHILkoyuXbvSWO7p6amo7gulHpOVlUUe0LFjR9JW2mnMY6hZGsAoaGtrSwlyQVaYg8yDRlASxBkzZnh4eHTp0oU+gtjY2NTUVOXeo3z+GLnQnpd73uLKlSskNNypGlkqKipojBffCiPOyszMvHjxIp8hpbCwkNrPycnhfuSsXdi92HTwy56w0Ti04ebm5qRcfIbmgMcAoFlqxGOUzMQldy4viYI5uCQyE1tJFHsMo6bn2pLtj2bn2lLuMcSsWbPatWsnjtPepk3eu3evUIZRJzyGQR5AI3TVptZVty65Dg3wNJyLgyQW5L5Xr14V/2iIILVlJ13o07eysvLx8Zk3b96WLVvoSBAX0zjVvIkEqMXJkydXr15N/5qOHj0aHBxsYmKSn5/PF9Ic8BgANEtVPKZMCh8VoeiXn4rm8lI0B5dEejZYPLGVpDKPkdTwXFuy/eHOXVdzrq1KPYbkjwZUFu/Vq9ekSZOo2SNHjvxT4W/qkMfoDmQ558+fJ6mdPn06qepbb701duxY0lY6EtS9aaY6wGNqk4yMDF9fXwsLi86dO9N/j+zsbL6ERoHHAKBZ1POYoqIi+rf+mhRK0CJfQooij8mWN5eXkjm4JFIzEE9sJVHBY2p0ri3Z/nAeU825tuR6DGnZ4cOHf/zxx88++8zAwCAiIoLF9fT0qM/kTOLyAvAYFaEv36SbtG8HDRpEhwF9arSHt2/fLlyNqn3gMfUYeAwAmkU9j5kyZcr/3rn3N7TIl5CiyGPkzuWlZA4uidQMxBNbSVTwmBqda0u2P5zHVHOuLbke06hRow4dOtB+8/Dw+Oqrr9jJMIp3797d1dWV4nJ/YAWPUcSjR49Onz69evXqiRMnkiPSbpw0aVJ8fDyZrjAbnnaBx9Rj4DEAaBb1PKZNmzZij6FFvoQURTNxSeTN5aVkDi6JzK8MJCp4TI3OtSXbH1V+E6H6XFtyPUZ2G4V4QUGBi4uLubm5rMrAY8Tk5ub+8MMPH330ER0elpaW5JefffbZgQMH5P5yW+uo4jH0N0IqxkdfeXRkAgUlwGMA0Czqecwbb7wh9hha5EtI8VIwE5cYYS4vJXNwSWTMQFKZx9T0XFuy/VHFY1Sfa0tdj5FI5zcjlSEp5H6f8op7TGlp6aFDh2jMGDlyZOfOnT09PWfMmLFu3bqLFy9q9kmQNYEqBzD3tOoapdLZBzRLlVenOxMoKAEeA4BmUc9j2E9VBWiRLyFF0UxciubyUjQHl0TGDCQyHlPLc23J9kcVj5GoPNdWFTxGIlWZnj17Uvvie49eNY95/PgxHTn//ve/abfTx8du0V2+fHlKSgr36yTdR9c8ppZnH6jy6nRnAgUlwGMA0CzqeQwpCP2HdZBCCWYksiiaiUvRXF6K5uCSyJiBRMZjmFHV2lxbsv1R0WNUnGurah5D5OfncyrzKngMHWlJSUmffPKJv78/bTt9jv/617927drFTUZX55DrMWRj0dHRTk5O7Kf7nMcon7lgyZIldHiQkYvnAjh8+DD7JkBxOhrv3r0rriJMLiA7+wArs379eipDykj92b59O3WPuk2t9e3b9+DBg8JalHRM7iQFclcnpk5MoKAEeAwAmkU9j1EdJTNxKZrLS7tzcOnIXFvkMWQ5ZFHV2QnkatRCvfQYGkWOHDmydOlSksIuXbrQIDRt2jQy1MzMzD///JMvXWeR6zE0fDZt2pSGZDIDUljxT/eVz1xAJYcMGUJ6RwUMDQ2Fn+PRgEqD9969e3/44QeS9V69eglVxJMLyM4+IJQhDdq2bduMGTPoSwjZwIQJE2gxJCSEvo2QbVTaMbmTFMhdnRhFX0gkujSBghLgMQBolpryGMCh4lxbgwcP7izl+vXrfJ7KzJ49mzWSnJzM56mDLniMMKHL+++/z2bRfffdd6lj7Bs5X7q+IOsxDx48aNmyJX37Z4tk282bNxd+Bqh85gILCwvh1CkdG7QPhZIC7Pnhwuz+3OQCshdlqAwZA0tTSXICT09PtkgO0apVqw0bNlTaMbmTFEjkrU5MnZhAQQnwGAA0CzymlqjlubY0grY85u7du/v27YuMjKShRZjQhb7o1/QsurqDrMdkZWXR8Cx+MigdTmwErXTmggkTJgi19u7dq6enxyTgxo0bc+fO9fb2psI2NjYU37lzJ6vCTS4gKxZ9Xp5iwNXVVXxFlRqk0brSjsmdpEAib3WqoyMTKCgBHgOAZoHHAIXUmsc8evTo1KlTbEIXOzs7+io8adKkb775hgZCHZnQpZaR9ZjTp0/TCCq+UCvcdlbpzAWhoaFCrSNHjlBh9gAyJyengICAPXv2pKWlnTlzxtDQcMuWLawKdxOYrFhwZdzd3UlWhEU280KlHVN0M5ns6qqGFidQUAI8BgDNAo8BCqlRj7l27dq2bdvoO7qfn5+VlRWb0OXgwYOFhYV80VcPWY8pKCjQ09PbtWuXELG2tmYjaKUzFxDC4qpVq5o3by6RPomMhuRz586xOCVoUZHHcLMPSGTKyPWYSjsm1xUk8lZXNbQ4gYIS4DEAaBZ4DFCIZj3mP//5z/Hjx2NiYsaMGcNu0X3//ffXrl174cIF3Z/QpZaR9Rhi6NChzs7Od+7ckUifvUqKIIygymcuaNiwIROU3NxcS0tLNkvK/fv3DQ0N2c3mJEm+vr405CvyGG72Adkycj1GUlnH5LqCRN7qxNSJCRSUAI8BQLPAY4BCxB7z7NkzLqEKeXl5NDTOmzfPx8fHyspq+PDhdGgdOnSoHt+iqxHkegztTHt7e5KPli1b0kArXFeSVDZzARXr3r27iYkJqY+3t7dgAMuWLWvUqFG7du2MjY3pc6GKijyGm31Atowij1HeMUWuILs6MYp+r6RTEygoAR4DgGZR6DHtwSuP4DHkLvQd9OnTp0Li5ePlH3777bfU1NTY2Fh20qVXr14zZszYsGFDTk6OWgL0iiPXYyTSm1gzMzMvXrzIZ0iRO3OBMCRnZWXRWC7EGfn5+enp6bLnNjSL3I7VEDoygYIS4DEAaBaFHsP/8YFXD/H5GGdn57t374oTAjdu3EhKShLudBk2bFh0dDROulQHRR5TBWRPPIDqoOIECkqAxwCgWeAxQCFijxk6dOjp06dZIiUlhb7vxsfHT5w4sVu3bj179gwNDV27du3FixeVnKoBqqNBj6HPKzIyko+CqlL9CRTgMQBoFngMUIjYY8LCwlauXLlmzRoHBwdTU9O3336bRscDBw4UFRWJDhygGTToMUDXgMcAoFngMUAhNJo+evTo8OHD4eHhXaRQYtq0adHR0fwRAzQKPKYeA48BQLPAY4BC6DDo1q1bcHBwQkLCypUrZ82aRcfG1q1bWQLUHPCYeoxmpzMAAMBjgELoH64ws8upU6eGDRsmToCaIzY2Vt27R0GdgD7WmJgY/vMGAFSDeuUxxcXFBw4cSExMTEpKunz5Mp+tGBqwExIS+Ogrj/iL4507d3r27ClOgJqDdv7y5cuXLFmyGNQj6ANlT/rkP28AQDWoPx6TnJxsamrapk0bd3d3KysrfX39qKgoljVlyhQhLZegoCA2ySkQs1jkMU+fPrW0tHz27JmQEB0vAAAAgHaoPx5jbW09dOjQBw8esMXc3NxTp06xtKYeO/eqIfaYF1Wd0hcAAACoOdTwmMjIyPXr169atcrV1dXT0zM+Pl7IOnz48JgxY5ydnd3c3MLCwu7evSuuEhMT4+Li4uHhsX379oqKChodqWTfvn0PHjwotEAkJSWRcNjb25OOnDhxQpwlcOPGDVoXe4CtmOLi4gYNGqxdu5aLE7GxsaampmQ5w6Xk5eVJpB1bt24ddYw6PH78+OjoaGFzlGzmw4cPo6KiHB0daVsSEhKWL19OxYTc+gfnMQAAAICuoYbH9OnTx8zMLCgoaOvWrQsWLNDX19+/fz/LWrRoEanA3r17f/jhB3d39169eglVOnToQIqzbdu2GTNmGBgYkDRMmDCBFkNCQoyMjMhLWEnSBWNjY7IEanP+/PlNmjQRni0nRtGjVQhzc3PSo6NHj3Jzn6empvbo0YMMaZOUwsJCyd8dGzhw4MaNG3fs2ME9WkXRZlLHWrRoQe6yc+fOfv36tWvXTt1HxNUt4DEAAAB0HPU8hoRAePysn5+fMPaLIckQP0yO3ILFqSKpg6enJ1sk22jVqtWGDRsk0ge8tW7deunSpX+3IRk7duyIESOERQGSG5KJ+/fv8xkSSUpKiqWlJa2a9Ij6tm7dOiFL9roSdaxr167CtnAeI3czS0pKmjZtGhcXx+LUBxMTE3gMAAAAoEXU8xixDYSEhAQGBrL0jRs35s6d6+3tbWtra2Njo6ent3PnTtkqrq6u4ke9UOFFixZRIj09nfxj8uTJ5CgRERHh4eG+vr6UK5RUEZKP48eP0+hL66UGZ82axeJyPYb6LyxyHiN3M8nMqM2srCwhy9/fHx4DAAAAaBH1PEbRs+ydnJwCAgL27NmTlpZ25swZQ0PDLVu2yFZxd3cnUxEW7ezsFi5cSIljx46RIsyePftzEbGxsULJKhAaGkrdYHfSyPUYccc4j5G7mbRp1MlLly4JWQMGDIDHAAAAAFpEAx5z7do1GuDPnTvH4pSgRbU85vbt2/r6+ps3bxayqk9cXJyent69e/ckUk2ZNm2aOLcKHlNUVGRgYLBp0yYWLy8v79ixIzwGAAAA0CIa8Jj79+8bGhquWLGC0gUFBb6+viQQankMMWrUKAsLC+He3jNnzuzbt08oKbB//35qk9bCxUtLS4ODg5OTk4uLiyXSZ9La2Ni4uLiw3NDQUDc3t+vXr5PWsBtfquAxxMSJEy0tLWktubm51KaRkRE8BgAAANAiGvAYYtmyZY0aNWrXrp2xsTHVpQFeXY8pKioaN26cgYFBq1atqDq9r1y5UigpoOj3SmVlZQEBAU2aNNHX16d3KuPj4yNcA7pw4QKtmsWFG5Cr4DGkQaNHj6ZtpO5RmUGDBoWFhQkl6x/wGAAAADqOGh6jnPz8/PT0dNkzJWpRWFiYlpaWk5PD/XZaRUpLS0lZMjIyqtkNVaAempubs7NQ9RV4DAAAAB1HYx7zKnDy5MnVq1eTrh09ejQ4ONjExKR+P8wPHgMAAEDHgceoQUZGhq+vr4WFRefOnYcPH56dnc2XqF/AYwAAAOg48BigEHgMAAAAHQceAxQCjwEAAKDj6IrH0JCZkJAgm1ad4uLiAwcOJCYmJiUlXb58mc9WTNVW9yoAjwEAAKDj6IrHBAUFzZw5k6XFv4JWkeTkZFNT0zZt2ri7u1tZWenr60dFRbGsKVOmCGm5iFcNxMBjAAAA6Di64jFiquAx1tbWQ4cOffDgAVvMzc09deoUS8s+lACoCDwGAACAjqOexyQlJZEW2NvbkzScOHFCiEdGRq5fvz4mJsbFxcXDw2P79u0VFRU0Cjo7O/ft2/fgwYOs2OHDh8eMGUNBNze3sLCwu3fvCi1ER0fHx8eztCKPuXHjBrXAHpkkpri4uEGDBmvXruXiRGxsrKmpKVnOcCl5eXkSaW/XrVtHvaVujB8/XrxqtiGrVq1ydXX19PQU4sTDhw+joqIcHR1pAxMSEpYvX07FhNx6CTwGAACAjqOGx9CgbmxsTGP5/v3758+f36RJE+ExAn369OnQoQM5yrZt22bMmGFgYEB+MGHCBFoMCQkxMjIiBaFiixYtImnYu3fvDz/84O7u3qtXL6Fxsbso8hhFk/kS5ubmpEdHjx7lJtBLTU3t0aMHudcmKYWFhZK/e0tr2bhx444dO7jJfM3MzIKCgrZu3bpgwQJ9fX3aWJZFm9yiRQtyl507d/br169du3b1+6EEEngMAAAAnUdVjykrK2vduvXSpUuFyNixY0eMGMHSNPyTRrB0RUUFWYKnpydbJLFo1arVhg0b2KIA6YjwlACJah5D2kQycf/+fT5DIklJSbG0tKQGyZn8/PzWrVsnZMleV6Ledu3alT1oSSLzUALyHiGLmmJZJSUlTZs2jYuLY3Hqg4mJCTwGAAAA0C6qekx6ejpZwuTJk8kkIiIiwsPDfX19bW1tWS4N/2JXcHV1FT+iiIotWrRIIr0wNHfuXG9vb4rY2Njo6ent3LmTlVHFY5RD8nH8+HEaeqkz1NVZs2axuFyPCQkJERY5jxEXpmKBgYGUIN+iNrOysoQsf39/eAwAAACgXVT1mGPHjtFAPnv27M9FxMbGslwVnwfp5OQUEBCwZ8+etLS0M2fOGBoassdJSjThMWJCQ0OpcXYnjVyPUfchkdRh2nzhwZPEgAED4DEAAACAdlHVY27fvq2vr79582YuzlDFY65du0YqcO7cORakBC3WkMfExcXp6endu3dPIm1t2rRp4twqeExRUZGBgcGmTZtYvLy8vGPHjvAYAAAAQLuo6jHEqFGjLCwshHt7z5w5s2/fPpZWxWPu379vaGjIHhBdUFDg6+tLqqGWx+zfv59WJPss69LS0uDg4OTk5OLiYon0KUg2NjYuLi4sNzQ01M3N7fr166Q17MaXKngMMXHiREtLS1pLbm4utWlkZASPAQAAALSLGh5TVFQ0btw4AwODVq1a0ShO7ytXrmRZqngMJZYtW9aoUaN27doZGxvTKqgRtTxG0e+VysrKAgICmjRpoq+vT+9UxsfHR7gGdOHCBeoPi7PbiqvmMaRBo0ePpp7ThlOZQYMGhYWFCSXrJfAYAAAAOo4aHsMoLCxMS0vLycnhfuGsIvn5+enp6bLnVKpPaWkpKUtGRkZNNM5B225ubs7OLdVj4DEAAAB0HLU95pXl5MmTq1evJgk7evRocHCwiYkJORlfqH4BjwEAAKDjwGNUJSMjw9fX18LConPnzsOHD8/OzuZL1DvgMQAAAHQceAxQCDwGAACAjgOPAQqBxwAAANBxNOMxn3/++bfffstHa4BLly6lpqaK7+S9d+8eRWQfHlllam1bBIqLiw8cOJCYmJiUlHT58mU+WzHkGQkJCXxUc+iax9Bn/dtvv/HRqlJSUmJubl5eXs5nAAAAqDtoxmO4nyvXHGPGjGnQoMGECROEyOHDhyly7do1UalqUWvbwkhOTjY1NW3Tpo27u7uVlZW+vn5UVBTLmjJlipCWS1BQ0MyZM/mo5uA85tmzZ+LF2sfZ2ZkUk49WlaKiIjpySktL+QwAAAB1h7rnMa1atWrYsGFmZiaL1HWPsba2Hjp06IMHD9hibm7uqVOnWFr2iQq1jNhjnj59amlpyVRGs0JDrZ07dy49PV041/LHH38UFBQIBR4/fpyfn0/C4eDgEBsbS+mSkhJFdYni4uLff/+9oqLi559/vnPnjhBnPHz48Pjx4zdv3uQ8hg6hY8eOZWVlPXny5OUaAAAAdBc1PCYyMnLdunVLlizp2bOnm5tbfHy8kMXG/lWrVrm6unp6eoqzCFr08vKys7MbNWqU8DMfam39+vWKqiQlJdEobm9vT2P8iRMnhDh5jJ+fH61uyJAhLCL2GOrD9u3bhcJfffUVtc/SbHUxMTEuLi4eHh5UjMY5GqfpK37fvn0PHjwo1GLbInczJQo6xvYMNU7lx48fLy7PuHHjBvVT9uIXjbjU+bVr13JxggZsU1NTspzhUvLy8mTXEh0dLXRPyf6kkTsqKsrR0ZE2PCEhYfny5cJuUY7YY0gIaIe8eFloqg9tV+fOnbt27UpHSJs2bQ4dOvRCqhoW/5+9MwGL4kj/sCBgBA8UFRUjaNCVCCg3iniAqFFRFGQ9V40XORCDCWiyRF2JGk/UmJh4xCNqRLzQrCd4RRAvJCqexAsVUJHOsVldE/+//9SmtqmeGYZhcBC+9+Hh6a6qrq7uOb63p7uqHBwWLVrEygQHBw8YMODDDz+0tLREOl6yUaNGadoWtGvXbty4ca+99hpO1CuvvPLZZ5/9ubfnhw8frlu3Lmr4y1/+MmHCBOYxv//+e2hoaNOmTYOCgtq3b9+jRw9e3ojgLTpr1qx5ROVi69at4itNEETZKIXHIMDb2tpCIPBRRFw0NzdHWOVZdnZ2CAabNm2aNm2aqalpcnIyy4JM1KxZExERW/Xu3dvGxubmzZvaN0EMtrKywi6QMmXKFGzOJ0NgHoPraRMTE8QkqbjH8IGDGQj/fOoA7A6BCpt/++2377zzjpmZGVRg5MiRWB0zZgwCJFSDl9R0mJoaxirv06fPmjVrtmzZwgrL0TQSMbC3t0dYTUlJEcYVxNEhpsKZ1qm4e/euci/CSMSazieaiuANd0lKSurevTuOTscZFfCq8R8nvv/+e8jEc5nQlJ0//vjD19cXBsZWd+7cibb9+uuvWM7IyMCpPnnyJLwN7gKzeV78vpKWbeExOHU//fQTlnHItWvXhqlgGf8hPXiHsM1h1cxjsrKysC+2LcCBswUjAkXmU8ETlQm8rHhxxdebIIgyUDqPYRGFrUZFRbVu3ZpnIXKw2YsAVIPF10ePHllbW3O3wOqrr74aExOjfZMGDRrMnTuXpYNhw4aFhYWxZeYxWMA1eteuXaXSeAyiIFvGTiEEfn5+bBUCUa9evdWrV/OSag9TS8OwCQIkPxYl0B3IRF5enpghSQcPHmzRogUOAS6FQ+POJCnuKyn3IniM2vNZUFBQq1atJUuWsHS0ASqpo8fgbfD6668PGjToiy++SEhImDhx4nOZ0JQdiB0O/MiRI5l/At86ceIEy124cCHMDIYBp2Epco/Rsi08BtLGiuF1RDF2l+rSpUtY5neg0tPTmcfcuXPHwsJi1qxZeBexLKMDg9TydiJeXvCy4p0mvt4EQZSB0nmM/AHbHTt2mJiYsNiMLHnEHTNmDDwDC4guCBUIGDxrxIgRvXr10rIJiy5vvvkmAn9sbCykJyAgoG3btqwY9xhcqVevXj05OVl3j5HvztvbW/4QDOrHlwtb1nSYWhqGTdB+vklpwVfboUOHELpQD3YBXWDpSo8R9iJ4jNrzeerUKdR59uxZnhUUFKSjx6BJv/76K84wDra1Cix89NFHERER4jtGL2AhpqamPYsD52O5kA/oRadOnXh5ucdo2RYes379elbst99+w+Ffu3btueqmEpTuv3U9f37z5k3mMVjet28f3pZQyZYtW27evJmXMRY48+KLQVQWKlo3QIJ42SmdxyCA8dX9+/cjDNy4cYNlqZ1e8fjx4yiTlZXFs8aPH+/v7y9p3iQ1NRWbREVFTZeBS3NWjHuMpPo5xN3dXYvHDBgwQO4xusxkKWk+TC0NEyovC9i1ubk5e5Kmp8JjhL3oMsMlQjuazWfNBL1799bdY/hbIjIycvHixcuXL4cCNm7cGFH/448/3r17NwxP9sYpHcwk5I/0cp49e4Yjwsv96quvLlu2jCV6eXmtXr2aLWvZVpPH4D+WcW5ZFkyIewzjyZMnS5Yswfln96SMCHlMJYZ+jyEIw1I6jwF8FVGtTp06PEttEL17966JicnGjRt5lp+fH/u1Q9MmiE+4zkYc4lly5B5z8eLFGjVqvP3229xjcO3+/vvv88Jubm76eYzaw9TSMKVh6A3iKM7YvXv3JJWmTJgwgWcp96KLx9y/f9/MzGzdunUsvbCwsFmzZnp4TEhICKz0uUpo1qxZc+LEiaVLl44aNapNmzYwG7wKMIwLFy788ccf/3sb6UBAQMCgQYN++eWX56pnViCL7Aniv//973hR/vWvf33//fdWVlbnzp1DYv/+/aOjo9nDLlq21eQxAOKLs/RcpSxvvPEG8xi8sleuXGEFcIzVq1c34Cg1+lHxPaaoqOjgwYNTp04NCgrCCYfa4j+WkYJ0uimmBfIYgjAspfMYfMVv2LBBUnUPbtGiBR+8RFMQBWFhYQhIzDNWrFiBII14o32TwYMHOzg48Gd7T548uXPnTrYs9xjw1ltvQWW4xyDEOjo63rhxA1+jEAK0Vj+P0XSYmhqmNAyB5ORklFFOxI0gGh4efuDAgfz8fEk1hZOTk5OXlxfLjYiI8PHxQQyG1uCIlHvRxWMAbANHgb3gcFCnpaWlHh7j4eFx+/bt5zKh4Vy/fn3Tpk2TJ09GG3D+//rXv86bN+/w4cO62AAOrW/fvrVq1frLX/5ibW3dvn37p0+fIhDWrl0brWVl8G5ELmrDfqFNFhYWsGFN2z7X6jFnz561s7ODyTVp0uTjjz9mHoNq69Wrh8S2bdti4YsvvmCFjUgF95g9e/Z069bNr3OniR9NStjy2aqUtVuzkvF/SdLn78VFd+rsj1yUETcjVJDHEIRhKZ3HIP4hSNjY2Jiamvr7+/PArCWIIsh16tQJ5evWrcs6LpW4yf3794cPH25mZoaggqCL/wkJCSxL8JicnByEMe4xCFcwEmyIK/h+/foFBwfr5zGaDlNTw5SGIaCpv9KjR4969OiB04Id4T/KIADwe0BZWVloJ0s/deqUci86egzi/ZAhQ3BO0GCUQeyH8PGSWuAe8+zZM5jQf/7zn+cyoVGLpLoTh2/qgQMHtmzZEi8WzvPWrVuV47jIgaNcunRJv6F1S7stXAeGBC+UJ+IAob9XrlyB98jTjUWF9Ric59jYWA8vj38s/wTuoulv1pdzvLy9UFLohUdI5DEEYWhK5zEsUuKiVv7Iiy4g0qSlpantsKOJu3fvYpMLFy6U6qsQ8QltQ6ASM0qPpsPUr2FaYF1/MzIylD/YGBy02d7eftGiRWKGOuS/x/AR8LjQlAiKnTt3Dg43duzY9u3bQw3HjBmD1czMTB1rqLJUTI/Bm2fw4MFvhPTekL5Z6S7C34b0xOCBwRBoQ31MKg3kMQRhWPTxGOLl4tixY0uXLk1PT09JSQkPD7exsblz545YSB1qO1boPQLe7du3t27dOnXq1MDAwJYtWw4cOBD1HzhwQKoA47VUNCqmx8TExPTq/8aWzB1Ka1H7h5J9BwTHxsaKFVVtyGMIwrCUwmNCQkLi4uLEVKLCk5GRERAQ4ODg0KpVK9hD5p9DKpeIWo8xCD///POhQ4fmzp0Lr3rttde6dev2wQcfbNmy5caNG2LRKkkF9Jg9e/a4e7p/k1bsl5j4NXPemvau8m9jxhZWAOU9vTzpWRk55DEEYVhK4TFEVaP8PEbO77//fv78+RUrVkyYMMHNzc3V1fXNN99kt5+q7FRHFc1jioqKunbr+vHnM4RfXAIHBFVTx1f7V/My/1j+CTRalx5Mek/8Lgc14I0EP/7hhx+UqxUB8hiCMCzkMYRGXozHCOTm5m7btu3DDz+U3346ePCgVJVuP1U0j8H59+3kK0gM9xiLGhZt2jvJ/74+vF5ezK+zH3sFtVCWid85x48fNzc3j4mJWbRoUU5OjrAqljYS5DEEYVjKxWPwLbx8+XIxtQyU5ULN4I2pOhjFY+T8/PPPhw8flt9+QkxKSkq6efOmWLRyUdE8JnZK7PgpEZo8pqmDnTJL/vfuhxOnTp0qVlocg0z8jrcKH/tbuVpBII8hCMNSLh4j7w9cdsp4oRYaGsoHgCFKhdE9Rs6zZ89++OGHFStWjB8/nvV+wqsPtc3Kyqp8vZ8qmsd0Cei6YPNipaDo6DHYVj5cgpJSTfy+d+/eoUOHenh4+Pj4REZG3r59m5XESYO1WFtboxi8R1gtXqsxIY8hCMPyEniMQS7UCD2oUB4jwHo/TZkyhd1+CgsL+/TTT1NTU40+pYBBqGge09bFeVXqOqWgMI+pVadWn2HB/C967gdCMWzr4uoiVloc3Sd+hwfEx8fv2LFj48aNuLbp2LEjK3nw4MHw8HAHBwcUw3tDWJXXaVzIYwjCsJTCY+Li4lauXLlgwQJcBo0YMYIlLlu2rFOnTs7OzoMHD+YdYQSPSUxMxNeQi4sLdOTo0aM8XU5OTg4us9i8QnJKdaEmqWskvvLQSJa1atWqxYsXe3t7+/n5sUTG48ePZ8yY4ebm1qFDh+XLl8+fPx/FeG6VpSJ7jBy4C+LfnDlzQkND2eB7U6dORei6c+eOWPQloaJ5zKuvvpp4ZrsmjxFAolAM26IGsdLi6D7xuxw27fmpU6fY6vTp0yE9PFdYrSCQxxCEYSmFx3Tp0qVp06ZwlDVr1mzZsgUpuAJmQ/QiZvTu3dvGxubmzZtScY+BLlhZWcESkpOTcfWM8nxcfzmaRryVSnOhJqlrJG8Msuzs7BDqNm3aNG3aNFNTUzSJVYWG1a1bF+6SlJTUvXt3W1tbHUfur9y8LB4jhw++N2bMGFdXV7jp+PHj4cHnz5/nEzNVfCqax7R1aavl9xir2lY9wnrxv6hZ0UIxbOtc0u8xks4Tv+OaJzo62t/fv23btk5OTiYmJvjYsizyGIKogpTOY9q0acP7Tz569Mja2poP549VXHLFxMRIMnVAYoMGDebOnftnHf8/SXVYWBhf5UBuIBNqB/wt1YWa0EipuMfgS41noSqWXlBQUKtWrSVLlrB0tAFCRh4jvZweI3Djxg3o7AcffNC1a9fXXnutVHM/GZGK5jGdu3Uu4/Mx3QK7iZVqRcvE7+7u7j169Ni+fTu+NE6ePIlibDY0SSEu5DEEURUoncfgGpevZmZm4issPT2dp4wYMaJXr16STB2QizJvvvkmHCU2NhaWExAQoEcPAh0v1CRFI6XiHiMvjGLBwcFYOHXqFOo8e/YszwoKCiKPkSqFx8iRVM+MI4oMGDCA3X766KOPEA7v3r0rFjU2Fc1j3vsgelzsBKWg6Ogx46dExE4p3ai+miZ+v3r1KvZ45swZtooFrJLHEERVpnQeI5+X4Pjx4/gGkc9ANH78eH9/f0mmDqmpqSgTFRU1XcbChQv5Jnqg5UJNUjRSKu4xamdSxFUdGslnZwS9e/cmj5EqncfIefr0Kcz1yy+/HD16tIuLCy7x8b5auXLlhQsXKsLtp4rmMQcOHvDy81YKCvOYRna2S3Z8Lv9LPFvsYRqfTr7ax4/RfeL3+/fv4+PPJgjLzc3FdRF0hzyGIKoy+nsMrmLxDbJx40ae4ufnN3LkSEmmDjdv3jQ1NV2/fj0vU3Y0Xagx9PAYfDOamZmtW7eOpRcWFjZr1ow8RqrUHiPw448/JiYmvv/++127dnV0dDT67aeK5jFFRUV+Xfzi9BrPF1t17tpZ+3i+pZr4HS+NhYWFra2tlZUVvqksLS3JYwiiKqO/x4CwsDBnZ+erV69iecWKFdCL1NRUqfhzvoMHD3ZwcODP9p48eXLnzp3/3V5GcnIy6ldO+Kz7hRr7olQ2skSPAaNGjWrRogX2kp2djTrxzUgeI1Ulj5EjKW4/vfjeTxXNY8Cu73a5erQT5lcq0WNQvr1Hex3nV9J94ne8Funp6SUWq5iQxxCEYSmTx1y/fr1Tp064hKpbty7ruMTS5R5z//794cOHm5mZ1atXD36A/wkJCf+r4k809Vcq1YWapK6RungMNGjIkCG4vEPzUKZv376RkZG8ZJWlanqMnKdPn2ZmZrLeT+3atcPFPd42WD137ly5Dr5XAT0GREZPDAzuXqr5rrsHB0V/MFmsqGpDHkMQhqUUHqOJS5cupaWlqe1qxLl79y7KXLhwQeg7rSO6X6iVHbTQ3t6e3YCv4pDHCNy6dUs++B6b++nAgQOS1rmfnj17tmzZsqCgoNdeew3/sYwUsVBxUG1BQYH4ehgbfDT6h4VAZTakF/tVRu0fygQGB4WGh+n3ka/EkMcQhGExgMdUAo4dO7Z06dL09PSUlJTw8HAbG5s7d+6Ihaoe5DFa+Omnnw4dOjRv3jy8YRwdHbt06TJ58uRNmzZdv35dXgzKAt0ZMWLEuXPnfvnlF/zHMlK0qMyVK1fgSe3atauYKvNu9LuuHq7KZ2Xkf8h19Wj33vvvkcQoIY8hCMNCHvP/ZGRkBAQEODg4tGrVCjGGD0xcxSGP0ZHff//9woULq1evfvvtt728vJycnEaNGvXZZ5+dOHEiISFh+PDhQnmkIFdIBIcPHx4yZIirq+uAAQPYkJIVk+27dvj6d/Ds6DU2dsKCxMWrUtbCXfAfy0jx9PPq2Nlv93e7xc0IFeQxBGFYyGMIjZDH6EdeXt7u3bvj4uLeeOMNOzu706dPCwXOnTvXs2dPvvrkyZNNmzZ1U4EFrFbM52PkFBUV/XPfnnejIzt16/S6y+uNGzfGf/9u/hMnT9x3YJ/23klVHPIYgjAs5DGERshjyo6jo6Oy8zZSkI6FmzdvLliwwNXVdejQoUeOHOEFKr7HEHpDHkMQhoU8htAIeUzZ6dmz57lz54RE9ntMQUFB48aNnZycPvjgA0jMv/71L16APKYSQx5DEIalqnjMwoULly5dKqaWRH5+/q5du7766qvExMSLFy+K2ZpBHFq+fLmY+rJBHlN2PvvsMy3Px3z99deenp7x8fH9+vV77bXXgoODcc7hNHzaMqLyQR5DEIalqnhMeHh4aYe2O3DgQJMmTRo2bOjr69uyZUtTU9MZM2awrLFjx/JltYSGhr777rti6ssGeUzZKbG/0sSJE6OiorDw22+/HT16dM6cOXAaBweHhw8fiq8HUSkgjyEIw0IeoxFHR8eQkBAeTrKzs7///nu2rJzXqVJCHmMQtI8f869//atz586bN2+WbfH/H8Cvv/76E6LSsWbNGvIYgjAspfCYuLi4lStX4nrR09PTx8cHX8c8a+/evUOHDvXw8EB6ZGTk7du3WXp6evqgQYNcXV29vLyGDx/OZjBQm56amso949atW7hg/fLLL9nqhg0bYmP/N1ku9tupUydnZ+fBgwfzDtKsbQsWLEADcL0rqfpTxMfHu7u7d+jQYfny5Zo8JicnB41ns07Kyc/Pr1at2ooVK4R0SXWLqkmTJrCcgSouX74sKRqAXfPzg6xVq1YtXrzY29vbz89Pft4eP348Y8YMNzc31sj58+ejGM81OuQxL4YrV660bdsW/3kKPR9TiSGPIQjDUgqP6dKli62tbf/+/bdu3Yroa25ujsjNsvDJROTesWPHxo0bfX19O3bsiMSCgoKGDRuOGTNm9+7dW7ZsiYmJOXv2rKb0S5cuwRvOnDmDAt988w0qR9Rnlffu3fudd95hy59++imbAAFtQLqNjQ0bZgNta9q0aZ8+fXC5gzqRghbWqlULzpGYmAjvQcvVeoym+RCAvb09zCwlJUUYy+vw4cPt27fv2bPnOhV3796VFA2Qz8yALDs7u9DQ0E2bNk2bNs3U1DQ5OZllTZkypW7dunCXpKSk7t27a2qksSCPeWF8++23nTt35o/6ksdUYshjCMKwlM5jHBwcHj9+zFajoqJat25dvMj/Aydgsx1lZmZiAYIiFNCU3qpVK2iHpHr6ZNSoURYWFlAEOESdOnXgIpJqriVra2v+CCRWX331VWiQpGpbmzZt+KgVDx8+RMn58+ez1dzcXFSiVhHS0tIgE2onVTh48GCLFi3QVEtLy8DAQC5tkrr7SkIDBI+B9/AsVMWy4HMwrSVLlrB0tAFapraRxoI85kXCH5R5Th5TqSGPIQjDUjqPGTlyJF/dsWOHiYkJM4CcnJzo6Gh/f/+2bds6OTkhPSkpCZ7x+uuvN2/eHN/OO3fu5A+aaEqHvgQHB0sqoUlOTm7Xrh0uUiETZmZm7DcPJkDp6en/bYEkjRgxolevXpKqbWPGjOHpZ8+eRcnTp0/zlICAAD0UAfJx6NAhBBXUjwoRaVi6Wo+RN0DwGHlhFGOHCdVDnew3KkZQUJAejSw/yGNeJPIHZchjKjHkMQRhWErnMREREXx1//79CMM3btzAsru7e48ePbZv356Wlnby5Elzc/MNGzZIqnmkExIS+vbtW7t2bQcHh6ysLLat2vRvvvnG2to6Ozv7lVdeyc/Ph+Vgd3FxcT4+Pmyr48ePY4+8EjB+/HjIk6SYy5qVRFU8BepQRkVAY3Bc7EkatR4jb4DgMWrn2ca5QiP53N2S6g5aGRtpWMhjXjBXrlzx8vKC0JDHVGLIYwjCsJTOYwBfXbx4cZ06dbBw9epV/mgLwAJWmcdwIC6tW7eGmsgThfRbt26ZmppCTdhetm3b5uTkBE1hd44k1aTZJiYmGzdu5Jv7+fmxn4gEV8jNzUXJrVu38hRHR8cyKsKSJUtQJxosqTRlwoQJ8lw9POb+/ftmZmbr1q1j6YWFhc2aNStjIw0LecyLhz0iQx5TiSGPIQjDUjqPqV69OhOU7OzsFi1asCFS8vLyzM3NFy1aJKkEIiAgAPEexS5cuAAXYc/T3Lx5E+XZmCua0kH79u0tLCymTZvGqsUyav7uu+/+2wJJCgsLc3Z2Zv2eVqxYgR2lpqZKClcAISEhHh4ecCNJ9XQwDEmtIiQnJ2NbNFtIf/DgQXh4+IEDB/Lz8yXVRJKQKlwrs9yIiAgfH59r165Ba9iDL3p4DBg1ahQOH3vB+USdlpaWahtpLMhjjEVF9pjz58/zO7ZYPqzi+PHjFy9eLMu0SnqPOSkZethJXDiFq2DfHvwYOexiRn4eGKdOnTp69ChOwsKFC1kNJ06ckBdgkMcQhGEpnccgyrZr187GxgZa4O/vz8P/vHnz4By2trZWVlbYFvEYHpOWltaoUSOk29nZ1ahRo2/fvuxhGk3pAPG+WrVqhw4dYqt+fn41a9aEUrBVcP369U6dOmHvdevWZR2XWLrSYy5fvuzi4gINsra2Rq6m+0qa+is9evSoR48e2AX2hf8o061bN34PKCsry9fXl6Xjy0tSNEBHj8EX4pAhQ3DS6tWrhzI4FZGRkbyk0SGPMRYV2WOGDh2KzyBfNjMzq1+/Pj5l+KTUqVNn5MiR+JAW36JkyjLmpGToYSdxNYXrpdWrV7PvJRwj2mMpA61l6fw8SKrvQHzbfPHFF5KqiwA2x5fDzp07eQEOeQxBGJbSeQyLx2fPnpU/pMK4c+dOenq68oeNS5cuQVxY72hd0nWBbau2k5EcXBjhgumHH34QM3QGCoUjzcjIUB6XwSksLLS3t2c/a1UQyGOMxUvkMXy5oKBg+/btTk5OzZs3Z4/N6U6FGnMSHjN9+nS+KviK2vSPP/4Yl2TffPONvAB5DEG8GPTxGMJQHDt2bOnSpfC/lJSU8PBwGxsb6KBYyHiQxxiLMnoMPqebN2/mq59++ikfX1E5BCVLT0xMhDG4uLjAJ44ePcq3VY4wqcljGKjQ0tLyvffekycyymnMSaTwYScNMuZkaT0GZxuHvGPHDqEAeQxBvBhK4TH4gsPXhJhKlIGMjIyAgAAHB4dWrVrha5oPT1xBII8xFlo8Bh6A634UgASLeX/i7Owsn2kSby12U1XtEJSSaoxsKysrhPnk5OQpU6bUrFkzLS2NbdtFMcKkdo+RVLuDDwmJkuZ7uFLZxpyUZLdxuxhizEmlx3Ts2DH/T/htbpY+evRoVLt//35enkMeQxAvhlJ4DFHVII8xFpo8Ji8vD/G+mgoE6fj4eLGECk0eo3YISohRgwYN5s6dy1OGDRsWFhbGlrsUH+BR0sFjoqOj69evLyRK5TbmpFTcY8o+5qTSY9gJZyCXp5uYmCAFzsQLy6lGHkMQLwTyGEIj5DHGQpPH/OMf/5DHVHNzc35jSI4mj1E7BGV6ejqqevPNNyEZsbGxMTExAQEBbdu2Zdt2KT7Ao6SDx6DyRo0aCYkloveYk1Jxjyn7mJNKj/H09Dz/J1euXOHp7dq18/b2xvlU28GKPIYgXgwv2mMM20OyRMq4OwN2Ky07L74x5DHGQpPH/PWvf5V7DNi1a5dYSOExAwYM4DFbOQRlamoq6oF8TJfBZgiR1D0VV6LHBAYG8rEr9aNUY05KxT1Gbd/AUo05qfQY5THy9NzcXC8vL3t7e6XKkMcQxIvhRXtMiT0kdelmqQnltiXuTjtD9e1WqmxJ2dG7MZK+7SGPMRaaPAYvolxi8H7gPw/IQXx9//33+aqbm5syZvMhKG/evIm30/r164UCDKU0aPeYI0eOVK9eXVP7daRUY05KOnhMqcacLJXHSKpBs6AykEL5AOISeQxBvChetMeUiPLyS3fKsq1a5F9hpepWavCWSGVojKRve8hjjIUmD8jLy0OUZRKDSK/JTSMjIx0dHfHGKCoqghNALFjM1jQE5eDBgxGG+bO9J0+e5AFYKQ2Cx3h4eGRmZp45c2bfvn0fffRR7dq1kYv3p3wTRjmNOSnp4DFSacacLK3HSCqV8fT0RP3yZ4/IYwjixVAKj1F2d5Q0dNfU0sWR95CU1HUB1bGb5d69e9kXKFLwlX379m1JQxdN+e4kVb8MfPU4Ozvji5t3DtLSV1P5FSZ0K9W9JZKGcyWgqW+qpG9jJA3t0aUx5DHGQpPHSKq53NeuXTtz5kw+XKQSRH28yc3MzKysrPr168cHgdQ0BOX9+/fxAUT5evXq4R2F/wkJCawqpTQIHsOkCqpkY2Pj7++/aNEite9eSXN/pTKOOSnp5jG6jzmph8dIqgG0BJUhjyGIF0MpPKaLorujpu6aWro48m8ctV1AdexmiS8CCMqOHTs2btyI77iOHTtKGrpo8t1JqlE02BDAW7du7d27N7522Sh8XTT31VT7FTZQ1q1U95ZoOlcCmr7rJX0bI6lrj46Nwbli0/1whFWinNDiMTpSVFQEAxDudDA0DUGJNwbSL1y4IHR+fjFUnDEn8WGB6ECk9D4P+Pxic/IYgngxlM5j5N0dNXXX1N7FkYuF2i6gkro7IMJ+BfCVwS/UlNvy3aG11tbW/OFHrL766qtsBsouGvpqShrUQVO3Ui0t0XSu+CpHS99UvRsjFW+P7o3B6fLy8vruu+/YuwJfzWw25uckNOVM2T2GENB9zMl+/fq1UnHt2jUxTzeioqJYDWwGAwHyGIIwLKXzGHl3R03dNbV3cZSLhbILqKQwAEmxX0l18wXx29/fH7tzcnIyMTFJSkqS1G0raBPazLNGjBjRq1cvSVW/2r6akgZ1kHcr1bElms4VL6ALejdGKt4e3RuDaAp38fDwSEhIyM/PxwJzGny/e3p6ksqUH+QxBqfijDlJHkMQhqV0HiO/96ypu6b2Lo7yGz3KLqCSwgAkxX6Bu7t7jx49tm/fjn2dPHnS3NyczcKt3Jbv7vjx42gV2wVj/PjxCPmSon75PXW16iDvVqpjSzSdK15AF/RujFS8Pbo3hj0fA4OB8EE658+fj9WnT5927959/fr14puGMBzkMZUY8hiCMCz6e4ym7prauzjKPYbDu4CyAtq7WV69ehVh+MyZM2wVC1hlAVu5Ld/d3bt3TUxMNm7cyLP8/PxGjhwpKerX7jHybqW6t0TTuSoVejdGKt4e3RvDn/PFtl5eXvBROM2MGTNGjx5d/P1CGBjymEoMeQxBGBb9PUbS3F1TSxdHLhaauoCW2M0yLy/P3NycPaOXm5sbEBAAQWEBW7mtXJvCwsKcnZ3Z+KcrVqzAVqmpqcr6BY/R0q20VC3RdK4ENPVNlcrQGEnRHh0bwzwGdcJg/v3vfyckJDirgJuK7xjCoJDHVGLIYwjCsJTJYzR119TSxZGLhaYuoLp0s5w3bx42tLW1xS7QVOyaBWzltnKPuX79OqK+qalp3bp1Wccllq7dY6qp0NStVPeWaDpXAtr7K+nXGEnRHh0bg1O0e/duyFN+fj7eFdAXJycnvF6bN28W3zGEQSGPqcSQxxCEYSmFx2hCe3dN7V0cNXUBLZE7d+6kp6er/d1CO2yPajsE6UepWqL9XJUdwzaG9Vc6f/48e1eMGjXqH//4R2ZmJpRo+vTpz549K/6uIQwGPKYxUUkhjyEIw2IAj1GiexdHoiIzWzZ+zPr164OCgp4+fYrloqKioUOHhoaGPnz4sNj7hjAQ9HtMJYY8hiAMS7l4TMXp4kiUBf6cL2zG09Pz+vXr/B3y+++/z5kzB4nnzp3jiYShII+pxJDHEIRhKRePISoH3GOeaxj4bs+ePc7Ozps2bRIziLJBHlOJIY8hCMNCHkNoRO4xmrh27Zq/v39sbCy75UQYBPKYSgx5DEEYFvUeEx8fr2keAKKKgDeALh4Dfv7559GjRwcHB+fl5Yl5hF6Qx1RiyGMIwrCo95jDhw8nJiaKnz+iKrFly5ajR4+K7wwN/PHHHwkJCW5ubidPnhTziNJTfh6za9euCRMmhIeH//DDD8Lq+fPnT58+zYph+bCK48ePX7x4sSxXNfn5+djLV199ha8UVCVmawYnYfny5WLqyw95DEEYFvUeA5KSkj4lqirx8fF6DBKTmprq7Oy8du1aMcMY3Lt37+effxZTXxJK5TFjx45lY0iWCKTE3Nw8JiZm0aJFOTk5wqp8wGgsm5mZ1a9f39ra2tTUtE6dOiNHjrx+/Xrx+krmwIEDTZo0adiwoa+vb8uWLVEVb2qJzQ4NDX333XfF1Jcf8hiCMCwaPYYg9ODGjRsBAQGTJk168uSJmPdi8fDw+Prrr8XUl4RSeYxyWjFNzJ07Vz4hqLAqeAxfLigo2L59u5OTU/PmzfH68vK64OjoGBISwmeBzc7O/v7779my7s2uZJDHEIRhIY8hDMyvv/4aERGBKHX37l0xTzO///771atXDx8+fOfOHZaSn5+Pqh4/fnzo0CGEUqQ8e/bszJkz6enpwg8tN2/exIYXL15EJSzl0aNHrq6uCxcuRG1s2+eaN8d+U1NTz549W3EeVVbrMWj5oEGDcFxeXl7Dhw9nM2zgGJs0aQJdGKji8uXLe/fuZVNY+Pj4REZG3r59m22OOmEt1tbWKAaBEFYlzR7DwO4sLS3fe+89eSIjJycHO5UPLc3AK1itWrUVK1YI6ZK6ZsfFxa1cuXLBggVo9ogRI1AmPj5+2bJlrDxyV61atXjxYm9vbz8/P54O8A6ZMWOGm5tbhw4dli9fPn/+fBTjuRUQ8hiCMCzkMUS58Pnnn7dr1+748eNihjquXLnSvn17e3v7bt26NW7ceMeOHUjE5qNGjWratKm7u/u2bdsQ6lq1atWmTRvE14YNG+7Zs4dtyybzYuMVeXp6Ipoi8cMPP0TQRQrCOQogRe3m8J7Q0FDsIigoCA3o0aPH/9pkVJQeAxtDs8eMGbN79+4tW7bExMRAvJAOgUPLYY3rVMAdESZhADiHGzdu9PX17dixI6vh4MGD4eHhOCcotnXrVmFVKsljAITDxcVFSJS0TqaB1xQvQUpKijBmtLLZXbp0wQvRp0+fNWvW4ACl4pOKINfOzg4v1qZNm6ZNm2ZqapqcnMyypkyZUrduXbhLUlJS9+7dbW1t+WxuFRPyGIIwLOQxRHlx7NgxV1dXBDkxozh//PGHl5cXIjT7NeXZs2dFRUXPVR4D7WBegjIIybgoZ5vs3LkT4erXX3/FMv/9Bpsj0E6dOpWtyu8rado8KyvLysqK1QMQY9iC0VF6TGZmJlzh0qVLQrqk9QYN3ILP8AWmT58Oe+C5wmqJHhMdHV2/fn0hUVLNlQaZUDvXB2wJlok2QCsDAwNXrlzJs4Rmw1TwcssfKBY8Bk3luaiKZUHvatWqtWTJEpaONtjY2JDHEESVgjyGKEdyc3ODgoLefvtttcPoMa5fv444d+/ePSEdHjN37ly2zOLxkSNHMv8El+AnTpx4rnIUBEtcjs+cObNfv36IjmwTucdo2hwOZGFhgbhy9epVVrKCoPQY+Nzrr7/evHnzqKgoeBh/4kRSCEFOTg6Ew9/fv23btk5OTiYmJklJSSyrjB6DXTdq1EhILBHIx6FDh3BEcBG8ChMnTmTpSo+By/JVSeEx8sIoGRwcjAUoGupkP00x8H4jjyGIKgV5DFG+/Pbbb5GRkbiAvn37tpinAnphZmYmpqo8Zv369WwZZUxNTXsWJy0tDVmIZ25ubgjJuChH9PXx8WGbyD1Gy+b79u3r1auXpaVly5Yt9eiiVU4oPUZSTSOfkJDQt2/f2rVrOzg4ZGVlsfSexT3twZgAAGAgSURBVIXA3d29R48e27dvxwGePHnS3NycT3teRo/Bi4jTKySWioiICLSHPUkjNFs5rb3gMWonpccxwmPOnz/Ps3r37k0eQxBVCvIY4kWwatUqFxeXw4cPixmqp3QRivBfSJd7DCuTm5tbvMjznJwcCMpPP/3EVuPi4rjHeHl5rV69mi1r2pzz5MkTaBBCLK/KuKj1GA6EpnXr1lFRUWwVEX3ChAls+erVqzjSM2fOsFUsYNUgHgMXrF69uvaGlQhOsomJCdovFW+2pDAVSTePuX//PiR43bp1LL2wsLBZs2bkMQRRpSCPIV4Q6enpiJpLly4VM54/79q168CBA9m9J5gEu8ck9xgQEBAwaNCgX3755bnqXlJqauqzZ89u3brFLsefq2ZIsLW15R7Tv3//6Oho3oNJ7ebwmytXrrACx48fR5yuIEPOKHXhwoUL27Zte/z4MZbR7BYtWvDBVyIiInDUOHycN8R12NiiRYuQDm/DUcMb9PMYDw+PzMxMmNC+ffs++uij2rVrI7egoICX5yQnJ8MzsDsh/cGDB+Hh4QcOHMjPz5dU08c6OTnBL1muvNlFRUX6eQxgD3pjL9nZ2ajT0tKSPIYgqhTkMcSLA1G2d+/e48eP54/WMm7fvt2tW7datWq1bt26Xr16+/fvf67wGES7vn37osxf/vIXa2trBGDWTXry5Mk1a9ZEgHR0dESo4x4DL2nTpo2FhYWfn5+mzVEGu8MVfNu2bbHwxRdf8N0ZF6XHpKWlNWrUCIdjZ2dXo0YNHAt/rjYrK8vX1xcnoZrqkd558+ahGJTOysrqk08+QVzXz2OqqYDb2djY+Pv7w42UPasZmvoroXyPHj3QMFNTU9Y8vMr8HpDQbL09Bq/skCFDcLB4BVEGZyYyMpKXrICQxxCEYSGPIV4oT548iY6O7tq1K8KekPX48ePLly8LiiPw888/X7p0qbCwUJ5YUFBw5cqVZ8+eyRPVotwcW924cQOb//bbb7KCRkbpMQw0HkJz8+ZNMaM4d+7cSU9PV/5AYhQePHgAZcnIyHgB7cEra29vz36OqrCQxxCEYSGPIYzAunXrnJ2dU1JSxAxChSaPIZQcO3Zs6dKl8Da8ncLDw21sbKBxYqGKBHkMQRgW8hjCOJw6dcrNzS0hIeGPP/4Q86o85DG6k5GRwUZBbNWq1cCBAzMzM8USFQzyGIIwLOQxhNHIy8sLDg4ePXp0BXm6tuJAHlOJIY8hCMNCHkMYk6dPn8bExPj7+1+/fl3Mq8KQx1RiyGMIwrCQxxDGZ+PGjc7Ozvv27RMzqiq6eMzChQuXLl0qplZ58vPzd+3a9dVXXyUmJl68eFHM1gzO+fLly8XUcoA8hiAMC3kMUSE4e/asu7v7/Pnz6XGZ57p5THh4+AsbKGXs2LF8uJoXgN67O3DgQJMmTRo2bOjr69uyZUtTU1NeT4l1hoaGvvvuu2JqOUAeQxCGhTyGqCgUFBSEhIQgNleQQXWNSEXzGGEOgfJG7905OjriLcQnn8rOzv7+++/Zst51GhzyGIIwLOQxRAXiP//5z4cffujn51fRJm58waj1mKKiovj4eHd39w4dOixfvlzwmMTERIRqFxcXBPKjR4/y9Li4uJUrV86ZM8fT09PHx2fZsmU8a+/evWzcXqRHRkbevn1bvsmCBQuQPmLEiIULFzZp0gSKMFDF5cuXWZlVq1ahjJeXF9qzefNmNA/NRm1du3bdvXs334uWhqGGxYsXe3t74xXnDVO7Ozk5OTlouXJQvvz8/GrVqq1YsUJIl9TVKRwjyuDc8jZoaht4/PjxjBkz3Nzc2Kswf/58FOO5ukAeQxCGhTyGqHAgKDo7O+/Zs0fMqDKo9RiEz1q1aiEkwww6depka2vLPQaB1srKCgWSk5OnTJlSs2bNtLQ0ltWlSxeU7N+//9atW1HA3Nwc8ZtlIaAieO/YsWPjxo2+vr4dO3bkmzRt2rRPnz5r1qzZsmXL4cOH27dvDxdZp+Lu3bu8DDTo22+/feedd8zMzGADI0eOxOqYMWMsLS1hGyU2zM7OLjQ0dNOmTdOmTTM1NUUZpKvdnRxNwwcDe3t7iFRKSkphYaE8XVmncIySYvhgtW0DOIq6devCXZKSkrp37y5/FXSEPIYgDAt5DFERycrK8vT0nDNnDp8gqUqh9JiHDx9aW1vj6p+t5ubm1qlTh0XQR48eNWjQYO7cubzwsGHDwsLC2DJCsoODA5uYCURFRbVu3ZqX5EAL2PwAkmqTNm3aFBUV8VzlTRmUgTGwZZSEE/j5+bFVOES9evVWr15dYsPgFnwvgYGBXCOUu5MDE4JM8GkZ5Bw8eLBFixY4EIgUKuTGJinqVB6j4DFq21ZQUACVXLJkCUtHG2xsbMhjCMK4kMcQFRREblwQI/Lhq1/Mq+woPebs2bMIz6dPn+YpAQEBLIKmp6cj680330R0j42NjYmJQVbbtm1ZMYTkkSNH8q127NhhYmLCJCAnJyc6Otrf3x+FnZyckJ6UlMQ2GTNmDN9EUkiApCojT/H29pbPf4QKEa1LbJi8BuwxODiYLSt3pzuQj0OHDuEEon7sfeLEiSxd6THCMQoeo7Zt8DzUideCZwUFBZHHEIRxIY8hKi7/+c9/4uLiOnbsePnyZTGvUqP0mOPHjyOCZmdn8xREVhZBU1NTkRUVFTVdxsKFC1kxhOSIiAi+1f79+1H4xo0bWHZ3d+/Ro8f27dvT0tJOnjxpbm7OZpTsopiyUSkWQhlfX1/ICl91dnaeOXNmiQ3TNPWjcnf6gQPHQbEnaZQeo8e0lDhR1VTzq/Os3r17k8cQhHEhjyEqOklJSYiLu3fvFjMqL0qPyc3NNTEx2bp1K09xdHRkEfTmzZumpqbr16//X2kZXVTw1cWLF9epUwcLV69eRUg+c+YMS8cCVjV5DKL4hAkT5Cm6eEyJDVPrCpK63enHkiVLcNLu3bsnKepUe4wlesz9+/fNzMzWrVvH0gsLC5s1a0YeQxDGhTyGeAnAFbCXlxcCQBV5XEbpMSAkJMTDw+PWrVtY/vTTT6EIPIIOHjzYwcGBP0J78uTJnTt3smWE5OrVqzNByc7ObtGiBRslJS8vz9zcnE0NDUkKCAhAyNfkMRERET4+PteuXYMTsKdGdPEYqaSGqXUFSd3u5CQnJ2Nb5ezZDx48CA8PP3DgQH5+vqSad8nJyQlvG5Yr1Kk8Rl08BowaNQrnEHvByUSdlpaW5DEEYVzIY4iXg0ePHg0aNGjIkCEIQmJepUOtx1y+fNnFxQXyYW1tjUDL7ytJqt8Jhg8fbmZmVq9ePURW/E9ISGBZKIli7dq1s7Gxgfr4+/tzA5g3b56FhYWtra2VldUnn3yCDTV5TFZWFkylZs2a8meBdfEY7Q3T5ArK3cnR1F8J75AePXpgKxwm27Zbt278HpBQp/IYdfQYaBDehDhjOBaU6du3b2RkJC+pC+QxBGFYyGOIl4Znz55Nnz4d0QiXwmJe5UKtx0iqh1hPnz79ww8/iBkq7t69m5aWduHCBXmvYx6Sz549i1jO0xl37txJT09X/rZhWNQ2rJx48OABDjMjI6O8D0pS3Veyt7dnv2npDnkMQRgW8hjiJWPbtm243N+5c6eYUYnQ5DF6oPzhgSgLx44dW7p0KeQvJSUlPDzcxsYGLigW0gp5DEEYFvIY4uUDV/be3t4zZ8589uyZmFcpMKDHhISExMXFiamEvmRkZAQEBDg4OLRq1WrgwIGZmZliiZIgjyEIw0IeQ7yUPH78+K8qsCDmvfwY0GOIigZ5DEEYFvIY4mXl2bNn8fHx3t7eFy5cEPNecshjKjHkMQRhWMhjiJebnTt3Ojs7b9u2Tcx4mSGPqcTgxRVfb4IgygB5DPHSk52d7evrO3369ErzuMzChQtL+/Qo8VKAl3XBggXi600QRBkgjyEqA0VFRUOGDBk0aNCjR4/EvJcQBLz58+fPmTNnNlGJwAvKZvoUX2+CIMoAeQxRSfj9998RKry8vM6fPy/mEQRBEJUU8hiiUrF7925nZ+ekpCQxgyAIgqiMkMcQlY3Lly937NgxLi7uP//5j5hHEARBVC7IY4hKiCRJw4YNGzhw4MOHD8U8giAIohJBHkNUTn7//fc5c+Z4eHhkZWWJeQRBEERlgTyGqMzs2bPH2dl58+bNYgZBEARRKSCPISo5V69e9fPz+/DDD+lxGYIgiMoHeQxR+fnpp5/+9re/hYSEFBQUiHkEQRDEywx5DFEl+OOPP+bPn+/u7n727FkxjyAIgnhpIY8hqhD79u1zdnbesGGDmEEQBEG8nJDHEFWLnJyczp07x8TEPH36VMwjCIIgXjbIY4gqx88//zx69Ojg4OC8vDwxjyAIgnipII8hqiJ//PFHQkKCm5vbqVOnxDyCIAji5YE8hqi6pKSkODs7r1u3TswgCIIgXhLIY4gqzY8//titW7fo6OgnT56IeQRBEESFhzyGqOr8+uuv48ePf+ONN+7fvy/mEQRBEBUb8hiC+H8+++yz9u3bp6enixkEQRBEBYY8hiD+y+HDh11cXFauXClmEARBEBUV8hiC+B+3b98ODAyMjIz87bffxDyCIAii4kEeQxDFgMG8/fbbQUFBubm5Yh5BEARRwSCPIQg1fPXVV66urkePHhUzCIIgiIoEeQxBqOf48ePt27f//PPPxQyCIAiiwkAeQxAauXv3bq9evSIiIn799VcxjyAIgqgAkMcQhDaePHny3nvvdevW7caNG2IeQRAEYWzIYwiiZNauXevs7JyamipmEARBEEaFPIYgdOLkyZNubm4JCQl//PGHmEcQBEEYCfIYgtCVvLy84ODgUaNG/fzzz2IeQRAEYQzIYwiiFDx9+jQ2NrZTp07Xrl0T8wiCIIgXDnkMQZSaTZs2OTs779mzR8wgCIIgXizkMQShD1lZWZ6ennPmzPn999/FPIIgCOJFQR5DEHry8OHD0NDQoUOHFhUVPXv2bNmyZUFBQa+99hr+Yxkp4gYEQRCEoSGPIQj9gaxMnz7dx8enV69eI0aMOHfu3C+//IL/WB44cCCpDEEQRHlDHkMQZeWtt95q0aKFMObv8OHDP/vsM3kKQRAEYXDIYwiirPTs2TMjI0NIPHfuHNKFRIIgCMKwkMcQRFlxdHRUjiiDFKQLiYyjR4/OmjVrNkEowBvjyJEj4juGIAjNkMcQRFnp2bPnuXPnhERNv8ds27YtMTFRIggN4O3x7bffiu8bgiA0QB5DEGXls88+Gz58uJCo6fmYTz/9VAxcBFGcTz75RHzfEAShAfIYgigrz549GzhwoNr+SohJQmHyGKJE8CYR3jYEQWiCPIYgDIDa8WMQkBqXhBjBCII8hiBKA3kMQZQjfn5+Li4uCQkJPKW0v8cUFRUdPHjwg9gPugR0aevSFurzuktb/27+706O3LN/D3LFDYiXH/IYgtAd8hiCKEeio6M/++yz3r17v/322//+97+fl9Jj9uzZ07lrZ59OvmNjJyxIXLwqZe3WrGT8xzJSPDt6+fr7JiVvFTcjXnLIYwhCd8hjCKIcWbNmzeTJk2Ew8BjYTH5+vo4eU1hYGBMT4+bpHvf5DLiLpj/kuni4TpgU8ejRI7EK4qWFPIYgdIc8hiDKkczMzMDAQLackJDg4eHx/vvvi1FLASRm8JDBPfu/sSF9s9JdhD+UCQzu3mdg34ePHooVES8n5DEEoTvkMQRRjjx58qRFixb4z1a/++671q1b5+fni4GrOLGxsb1D+mzJ3MFlJX7NnLemvav825ixBbkoCZUZFzVerIh4OSGPIQjdIY8hiPIlMDAwMzOTr37yySdi1CrOnj17PL08v0kr9ktM4ICgaur4av9qVgDlXTxcN23/VqxOks6fP3+4OCdOnBALVSL48R4/fvzHH38Us18GyGMIQnfIYwiifImOjl67di1f1f58TFFRUUBAwMwvZwk3j5jHWNSwaNPeSf739eH1vEzc5zN8/H0fP34s1Dl06FBTU1NLGe7u7kKZygSO18zMrH79+nXq1MFJ8/X1vXDhgljISIwdO3bGjBliqgLyGILQHfIYgihf2KO+fFW7xxw8eLBTZ39BYrjHNHWwU2bJ/zz9vLb/c4dQJ+J6p06dhMRKjPx4MzMzmzdv3rNnz+JFjAZa8tZbb4mpCshjCEJ3yGMIonyRP+r7vCSPmTp1avTHk5WCoqPHjIudMGFShFCnFo+Ji4tbtWrVggULvLy8OnTosHnz5qKiotmzZ3t4eHTt2nX37t3ywomJiQjDLi4uISEhR48e5TWsXLkSNfj4+IwYMQIpjx8/njFjhpubGypcvnz5/PnzFy9erL0SVg9agpLe3t5+fn7Lli3jWSApKemNN95o27Zt586dFy5cuGXLlvHjiz0MtGTJkr///e9sWTjeSZMm2djY8FVNDcCBx8fHu7u7K5uNGnBmeEm8giUeUXp6+qBBg1xdXXFihw8ffvXqVSSi5U2aNHF0dByo4vLly7wSAfIYgtAd8hiCKF+ePHnSunXrp0+fslXtHtO9e/dlW5crBYV5TK06tfoMC+Z/0XM/EIot2Ly4Q5eOQp2I6zCDRzL4vacuXbo0bdoUBb799tt33nnHzMwMLjJy5EisjhkzxtLSMicnh5WEWFhZWUFQkpOTp0yZUrNmzbS0NF5Dnz591qxZA71ACnLr1q2LSA/5wOHY2tr+7W9/014Jq8fOzi40NHTTpk3Tpk0zNTVFGZYFRzE3N588efLOnTvhOrCK7Ozs6tWrp6amsgIPHz5s2LDhokWL2KrgMf3792/VqhVb1tIAJNaqVQuqAS/B5vJmOzs7z5w5ky0DKIj2IyooKEB7cAIhgjgnMTExZ8+eReHDhw+3b98e0rNOxd27d3mdAuQxBKE75DEEUe5wiXlekse0a9du7aENmjxGAIlCsVWp69o4Owl1Iq4LG/IwDHvw8PBgy0VFRTASGA9bLSwsrFev3urVq7EM9WnQoMHcuXNZFhg2bFhYWJikqqFNmzZ8WGGEcNgAzIOt5uXl2djYsN1pqURS1YMYz+sJDAwcN26cpHIUNOPDDz/kWzF69+7Nj2Lt2rWQCa4FOF4HBweYx/Tp00NCQiwsLFBA0toA7MXa2nr+/PksPTc3t06dOiV6jKYKMzMzcZIvXbrE0zl0X4kgDA55DEG8ULR7TPPmzbec/V93a8FjrGpb9Qjrxf+iZkULxRLPbG/2ajOhTsR1yEqmDP4rC+xBHla9vb0nTZrEV9u2bTtr1ixJdZcEe3/zzTenTJkSGxsbExMTEBCAXFbDmDFj+CanTp1CSfbzAyMoKIhFfS2VSIqWoM7g4GAspKWlYSv+qwln69atlpaWzF26du06atQonoXjrV+/fp8+fSBDkCoYDzRF0toANBhZp0+f5pUgq0SP0VQh/Ob111/HSxkVFbVz5062dwZ5jEH49ttv4+Pj5xBVjC+++EJ+TcghjyGIF4p2j2nXrt03R77V5DElPh+zKnWdk7rfYzQ9HwN7kIuLr68vQjJf5fE7NTUVe0dUni5j4cKFyhqYdpw/f56n8B9OtFQiKeoZN24cRAQLhw4dwlZwL57FKCoqcnBwWLRoUVZWlomJyZEjR3iW/HgvXrxoY2PDxh7U0oDjx48jKzs7m1cCi9LkMQMGDCjxiO7du5eQkNC3b9/atWujnWgk25Y8puwcPXqU3cEkqhpXr17FBQMfjotDHkMQLxTtHtO9e/cvt69UCoqOHrNg8+KOXf57Y4hTdo+5efOmqanp+vXreRZHqOH+/ftmZmbr1q1jq4WFhc2aNWNRX0slkqIe7jG3bt3CVmvWrPlf0T+ZMWOGi4sLtnJzc5OnC8e7YMGCV1555fLly1oakJubCxnauvV/M1U5Ojpyj0Ft8lGYsTtdjogBoWndujVch63ioCZMmFC8iBrIY7Qwe/Zsmh61ygKV+fLLL4W3BHkMQbxQtHvM1KlTY6dPUQoK85hGdrZLdnwu/0s8u11ebFzshHei3xXqRFx3d3c/JePMmTMsS0ePAYMHD3ZwcOD3d06ePLlz505JUQMYNWpUixYtDhw4kJ2dHRERYWlpyYVAUyWSoh7uMWDQoEGokI3d9+jRo71797L0H3/8sUaNGjVr1uSP4zAEj3nw4IGdnR2zBy0NCAkJ8fDwgDZJKo2AoPBmR0ZGQmtu3LiB8Il9Va9eXfsRXbhwYdu2bexhargOGs/HjMEJ8fHxuXbtGvxGSzAmj9HCnDlzxPNFVCXmzp0rvCXIYwjihaLdYw4ePNi5S5dtWbvUeowSPp4v+/P08/rn/j1CncrnfOEWLEt3j7l///7w4cPNzMzq1auHzfE/ISFBUtQgqX6BGDJkiJWVFcogq2/fvvAA7ZVIinrkHnP37t0BAwaYmJjY2NhYWFj06tWLF4Pi1K5dG9XyFEnhMWDRokUwnkuXLmlpwOXLl11cXMzNza2trdEY+X0laAdOBbbCQfXr10+epbZCaE2jRo3QVPgT9oszkJeXx8pnZWXhJMO98CpAKFmiEvIYLZDHVHHIYwjCyGj3GDae78LVCXp4TNznMzp28dNylV92oBQI0hcuXCgsLBTz1IFi9vb2vEc0o7SVMG7cuIGt2EAsHH9//7Fjx8pTdEFTA3DqTp8+/cMPP2A5PDycywrLgoLIH6CRo7ZCaBMSb968KSuoK+QxWignj8FLjKuImNiYboEBLq4ujRs3xv/A7oFTp05Ferl+rIhSQR5DEEZGu8dIqvmVvH28N59IElRG+983aZtdPdolf/ffMVeMyLFjx5YuXZqenp6SkgIbsLGxuXPnjliozJw/f37x4sVmZmbyvlEGRPCYFwx5jBbKw2P+ueef/l38fTr5jIudsCBx8aqUtfhM4T+W35r6Tkf/jl27dcMHU9yMMAbkMQRhZEr0GEk13/WAsAFJ53YqfUXtn2q+66BJ778nVmQMMjIyAgICHBwcWrVqNXDgQGVXI4Pg6urq6OgoDPtrQMaNG/fuu+KTRi8M8hgtGNZjCgsLoz+IbufRPu7zGcpPFv+b/sVMDy9PfDBL9SMiUR6QxxCEkdHFY/BdOWTIkJDQAd/q8KvMhvTN3YODQsPD6Bu20kAeowUDegw+MqHhobgGwIdI+clSftD6DOiDDyZ90IwLeQxBGBldPEZSfcPi4s/L2/vTFfOVX6n8DxeR7T3dJn8wmb5bKxPkMVowoMdMmjwJErMlU83Ik2r/ULLvgGB8MMWKiBcIeQxBGBkdPYaxZ8+ebt26+Xfxfy8uevGWz+S37SdMecvXv0Pnrp3ptn3lgzxGC4bymF3f7Xb1aPdNWrFfYuLXzHlr2rvKv40ZW1gBlPf09tT+ocvPz9+1a9dXX32VmJh48eJFMbtszJ49e/ny5WKqbpw/f/6wiuPHj//4449its6UpQ1lhzyGIIxMqTxG+rMbxdSpU4OCgtq1a9e4cWPXdq6B3btTN4pKDHmMFgziMfjg+HXppHwmRpeOgfFfzg4ICND00Ttw4ECTJk0aNmzo6+vbsmVLU1NTPnqQQQgNDdX7ya2hQ4eamZnVr1+/Tp06OCi08MKFC2IhBWPHjhUOoSxtKDvkMQRhZErrMUQVhDxGCwbxmH0H9nn6eQkSwz3GooZFm/ZO8r+vD6+XF+vUuROuIsRKVTg6OoaEhPBJtbKzs7///vviRYyGfGilzMzM5s2b9+zZs3gRNeg4mcYLgzyGIIwMeQxRIuQxWjCIx0x8P2pc7ARNHlPiBCCT4qKnTp0qVqq6o4TNV6xYIWb8SWJiIrTAxcUFrnP06FGeHhcXt3LlygULFvj4+IwYMWLz5s3C/BVLly5ls77Hx8fLu+klJSW98cYbbdu27dy5M5+tTNNehCEiJ02aZGNjw1f37t3L5pRFGyIjI2/fvo1E1NmkSRPI2UAVly9floq3AS1ftWrV4sWLvb29/fz85G17/PjxjBkz3NzcOnTosHz58vnz56MYz9Ub8hiCMDLkMUSJkMdowSAe06lrpwWbFysFRUePSUhc2r17d7FSFfb29lCBlJQU5aP3iPFWVlYI7cnJyVOmTKlZsyaf0aJLly5Nmzbt06fPmjVrtmzZcubMmWqyad4hBMidPXu2pJqia9y4cSx9yZIl5ubmkydP3rlzJ2SCjYitZS+Cx/Tv379Vq1Z8ddasWRCUHTt2bNy40dfXt2PHjkg8fPhw+/btYUXrVLAZ5uVtQMvt7OxCQ0M3bdo0bdo0U1NT7JdlYe9169aFu0C2cLpsbW0NMiYTeQxBGBnyGKJEyGO0YBCPed359VWp65SCwjymVp1afYYF87/ouR8IxbCtq6urWKmKgwcPtmjRoppq9o/AwMCVK1ey9EePHjVo0AAxmJccNmxYWFgYW4YNtGnTRv7Mjbe3N38GZfv27fCVnJwcSeYQDx8+rFevHvuRhqN9L/AYBweHmTNnTp8+PSQkxMLCYu3atbyknB9//LHan1NnKO8rCR4D0eEtxyGzrIKCglq1avG5z/Ly8mxsbMhjCKIygBD19ddff0IQGsAVOXmMFgziMc1ebZZ4ptgcq3KPEUCiUAzbvtr8VbHSP0FQP3To0OzZsxHjsfnEiRORmJ6ejuU333xzypQpsbGxMTExAQEBbdu2ZZug5JgxY+SVJCQkNGrUCF4iqeYR49ONcYdIS0urJvvNhqF9L/CY+vXrowbYBiSjd+/e/DkeAE+Kjo729/dHeScnJxMTk6SkJEkHj5Hn4iiCg4OxAAdCS+TDbQcFBZHHEERlgH6PIUqEPEYLBvEYJ62/x1jVtuoR1ov/Rc2KFopp+T1GICIiwtzcHDqSmpqKmqOioqbL4E+0KOdbvXPnziuvvJKYmJibm1uzZs0NGzawdO4QUCVUKIyXrX0v8vtKFy9etLGxef/99/m27u7uPXr02L59O9zo5MmTaDbbaYkeo3aGV6ZZ58+f51nQJvIYgqgMkMcQJUIeowWDeIxf2Z6PWaT5+RiBJUuWmJiY3Lt37+bNm6ampuvXrxdLqFB6jKTq3ty/f3/U0KBBA/7DCXeIW7duocI1a9bIN9G+F+H5mAULFkCV2KO7V69exYGfOXOGZbEHdJjHYI/CQ8e6eMz9+/fNzMzWrVvH0gsLC5s1a0YeQxCVAfIYokTIY7RgEI+JnDyxLP2Vov7+ntr+Sg8ePAgPDz9w4EB+fr6kmmvMycnJy8uL5Q4ePNjBwYHfCTp58uTOnTvZslqP2bp1a40aNVxcXOQ/h8gdYtCgQS1atDhx4oSkejJm7969kta9CB6D1trZ2TFHycvLMzc3Z1PT5+bmBgQEQL+Yx0RERPj4+Fy7dg02xp6D0cVjwKhRo9A8nI3s7GxUYmlpSR5DEJUB8hiiRMhjtGAQj9m7X9v4MY3sbJfs+Fz+l3i22MM0fhrGj4FM9OjRo2bNmqampviPqrp168bvrdy/f3/48OFmZmb16tVDUMf/hIQElqXWYwoLC5s0aYJK5CPQyB3i7t27AwYMgHDY2NhYWFj06tVL0roXwWMAxAWqdOnSJSzPmzcPldja2lpZWX3yySfYlnlMVlaWr68vOxz25K+OHgPvGTJkCGpDG1Cmb9++kZGRvKTekMcQhJEhjyFKhDxGCwbxmKKioo5d/PQbz/cfX87SMp6vpPqdA7E/IyMjNzdXzFPJR1pa2oULF5Qds/Xjxo0bqPDq1avyRP32cufOnfT0dLXNLiNohr29Pfu9p4yQxxCEkan0HoOrz9OnT/NlPp/LxYsXtXz164Le09YYdjqYmJiYcBW3bt2Sih8jS+HITwUDl7NHjx7FeVi4cCGrhN0UECCP0YJBPAbs3J2snF+pRI9BeQ8vD+3zKxGMY8eOLV26FGKUkpKCt7qNjQ08SSxUeshjCMLIVD6PEaZfkf92zedzsba2NjU1rVOnzsiRI69fv84L646WaWuU878IGHY6mPbt24eFha1evTovL0+SHWPt2rUR8Lp27cqvjIWf8efNm2dubv7FF19IqlFGUAPK82cX5JDHaMFQHgMmTp4YGNy9VPNd9w7pQ/Nd60hGRkZAQICDg0OrVq0GDhwodK3SG/IYgjAylc9jhG6Zgsfw5YKCgu3btzs5OTVv3vzGjRu8vI5ombZG2S+0XIHHTJ8+na/KjxFf3I0bN0Y7lVkff/xxjRo1vvnmG7bKII/RAwN6TGFh4YBBA6AyG9KL/Sqj9g9l3gjpPXjI4FLdqSEMDnkMQRiZsnuMMBWLpHk6laKiovj4eHd3d+X8JpMmTdq8eTMviVbJpz5RW2F6evqgQYNcXV29vLyGDx/OfnVQTr+iyWMY2MrS0vK9996TJ3JycnL27t3Lxv6So2XaGmUDlOfHsNPBaPEYMHHiRFtbWyELZxtHvWPHDl6MQR6jBwb0GEmlMlGTJ7l6tFM+KyP/m/b5P9y93GNiY0hijA55DEEYmRI9ht2t0IIwFYuW6VSQWKtWLUR6eAkCqnx+E2dn55kzZ/I6YQA8S22FBQUFDRs2HDNmzO7du7HTmJgYNlKncvoV7R4jqfYFQxISGV999RVC+48//ihmaJ62RtkA4fxIiu4VZZwORrvHwPBatmzJszp27Dh69GhUu3//fl6GQx6jB4b1GMZ3//zOr3MnLz/vsbETFiQuXpWyFu6C/1geHxvh26lDl25d6ZmYCgJ5DEEYGS0eg5AMvUBsa9y4sdrfHhjyqVi0TKfy8OFDa2vr+fPns/Tc3Nw6deqU6DGaKszMzETDWP9MAR3vK3Gio6Pr168vJDIgTJAJtSanadoaSdEA+flhCB5TxulglB4DLdu7d+9333338ccfm5mZ8ecnkGViYoI2w5l4eTnkMXpQHh4jqX68xHtscszkroFdnV2d8RnE/26B3WKnTEF6GR9RJwwIeQxBGBlNHnPnzh1bW1vWOQJUr149JSVFLKRCPhWLlulUzp49iyx5fxlklegxmiqE37z++uvNmzePiopC6JVPy1Jaj0ENjRo1EhJ1Qe20NZKiAfLzwxA8pozTwSg9xsLComnTpjg5HTp0wOvL74shq127dt7e3shS28GKPEYPysljiJcF8hiCMDKaPCYxMZFLDEM5LhZDPvCUlulUjh8/jqzs7Gy+IQK2Jo8ZMGAAy9JS4b179xISEvr27Vu7dm0HB4esrCy2bWk9JjAw0MfHR0gsLXzaGknRAOWQYroM26X7dDBKj1EeI4Nl5ebmenl52dvbK1WmGnlM6SGPqeKQxxCEkdHkMbt27SpmMdWqqR34XCoeibVMp4LwaWJisnXrVp7i6OjIAzPiq3yKODc3N5alpUIOhKZ169ZwHbYqTL+i3WOOHDlSvXr12bNnyxP1gE9bIykaoJ/H6D4dTGk9RlK9FlAZyJ9cKyXyGL0gj6nikMcQhJHR5DEFBQVOTk5cYiwtLc+dOycWUiFEYi3TqYSEhHh4eLDB2bBfCAoPzJGRkdCaGzduFBUVwQngFjxLbYUXLlzYtm3b48ePJZXrtGjRgg/ZIky/IngMGpCZmXnmzJl9+/Z99NFHtWvXRi4OlhUQSE5OxtEphxPVPm2N0AD9PEbSeToYPTxGUqmMp6cn6pc/Y0QeowfkMVUc8hiCMDKaPAZcuXIFDvHaa69179790KFDYvafCJFYy3Qqly9fdnFxMTc3t7a2xlby+0qI+s7OztjKysqqX79+8iy1FUJrGjVqZGFhYWdnV6NGjb59+/KncYXpVwSPYVoGT7KxsfH391+0aJGyWzVHU38l7dPWCA3Q22N0nA5GP4+RVI9ACSpDHqMH8Jivv/76E6JKsmbNGvIYgjAyWjymLGiaTqWoqOj06dM//PADlsPDw+U/MCALBiDc6eCorRABGIk3b96UFXxxaJ+2xrBomQ4GHgPLgUWVZSgRuBpqII/RA/o9popDHkMQRqacPEYXBI8hBHScDqZfv36tVFy7dk3M05moqChWyYEDB8Q88hitkMdUcchjCMLIGNFjxo0bZ8Bphiof5TQdjB6Qx2iBPKaKQx5DEEbGiB5DvCyQx2iBPKaKQx5DEEaGPIYoEfIYLZDHVHHIYwjCyJDHECVCHqMF8pgqDnkMQRgZ8hiiRMhjtGBEj5k9e/by5cvF1NJw/vx5PlUIlg+rOH78+MWLF8syhVN+fv6uXbu++uqrxMRE5bDR2in7QcmJiYkJV8GGrZIfI0vhyE8F49SpU0ePHsV5WLhwIavkxIkT8gIM8hiCMDIIUY0JQivkMVp4kR4zduxYPt4jCA0NLeOT8sLoSmZmZvXr17e2tjY1Na1Tp87IkSOvX79efIuSOXDgQJMmTRo2bOjr69uyZUtUxdsstF8tZT8oOe3btw8LC1u9ejUbX4ofY+3atatVq9a1a9erV6+yksLoSvPmzTM3N//iiy8k1aSwqEHTqATkMQRhZOj3GKJEyGO08CI9Rpi6q+xomrWjoKBg+/btTk5OzZs3v3Hjxv820AFHR8eQkBA+dWt2dvb333/Plg3e/hLRMkpkRkYGHB1NVWZ9/PHHNWrU+Oabb9gqgzyGICoo5DFEiZDHaKGMHhMXF7dy5coFCxb4+PiMGDECKXv37mUTaCAlMjLy9u3brOTChQubNGkCSxio4vLly/Hx8cuWLeP1rFq1avHixd7e3n5+fjwdPH78eMaMGW5ubh06dFi+fPn8+fNRjGVp8hjG1atXLS0t33vvPXkiIycnB+1UjoWdn5+PeL9ixQohXVLXfknd4fOD0u+IBLR4DJg4caKtra2QNWnSJBz1jh07eDEGeQxBVFDIY4gSIY/RghaPuXLlyrhx4/z9/REvuY4IdOnSpWnTpn369FmzZs2WLVuQMmvWLMRyxNGNGzf6+vp27NiRlTx8+DCics+ePdepuHv3rjDBhZ2dXWho6KZNm6ZNm2ZqapqcnMyypkyZUrduXUT6pKSk7t27I3Lz8Se1ewyAcLi4uAiJkuYpO4C9vT0kLCUlRRhgWtl+Sd3h84PS74gEtHvM8OHDW7ZsybNwqkePHo2a9+/fz8twyGMIooJCHkOUCHmMFjR5zJ07dxCG2XxeoG3btg8ePBALqaJ1mzZtND1UC1Goppqli60K92UEj0HM5vUEBgayrIKCglq1ai1ZsoSl5+Xl2djY6O4x0dHR9evXFxJBWloaZIJPaibn4MGDLVq0qKaaXBbNWLlyJc9S3ldSHr7cY/Q4IgGlx0DL9u7d+91333388cdmZmaxsbE8y8TEBM2GNvHycshjCKKCQh5DlAh5jBY0eUxCQgKXGIbaAIloPWbMGHlKTk4O7MHf3x/q4+TkhOCalJTEsrR7jDwLdQYHB0uqTjfY9dmzZ3lWUFCQ7h4TFRXVqFEjIbFEIB+HDh2aPXs2WoW9T5w4kaWr9Rjh8OUeo8cRCSg9xsLComnTps2bN+/QoQPe2PzWGLLatWvn7e2NLLV9rKqRxxBExYQ8higR8hgtaPKYuLi44hpTTf6EB0c5Hbq7u3uPHj22b9+elpZ28uRJc3PzDRs2sCztHqN24nRUgl3zydhB7969dfeYwMBAHx8fIbFURERE4BCYLqj1GE2zwet3RAJKj1EeI4Nl5ebmenl52dvbK1WGPIYgKihVwWMq2iAZ5TpChiQ7Rs69e/dYun4jZJDHaEGTx+C0m5qacol55ZVX5KGXI0Trq1evovCZM2fYKhawyj0GgXzChAm8sC4ec//+fTMzs3Xr1rH0wsLCZs2a6egxR44cqV69Ot6u8sTSsmTJEhMTE/YOFNovKZot6eAx2o9IoLQegwWmMg4ODtnZ2fIC5DEEUUF5WTxGl5EnNCF8WRt9kIxyHSFDUh0j2mMpg81iLXyJ6z5CBnmMFjR5DFi0aFHNmjVxVvE2W7t2rZitQojWeBHxomBDSRVQAwICIAHcYyIiInx8fK5duwYtgH3q4jFg1KhRLVq0wHsAgRk14P2gyWM8PDwyMzMhT/v27fvoo49q166N3IKCAlZATnJyMvaIFgrpDx48gA1jX7B8SdW32cnJCVrAcoX2S4pmSzp4jKT1iAT08BhJdeY9PT2xi0uXLvECmj4d5DEEYWReFo9R/iKtO5ouOivHIBnCN7Wk+ctanl6qETLIY7SgxWMk1Y920AL+PlGiDOTwSwsLC1tbWysrq08++QRBmntMVlYWvJm50alTp3T0GEjDkCFDUFu9evVQpm/fvpGRkSxL+Giwn46qV69uY2Pj7+8PnVL2rGZo6q+E8j169EALYdKsnd26deM/RAntlxTNlnTzGC1HJKCfx0iqx7QFldH06SCPIQgjo8ljlOM6JCYmIkK7uLggfh89epSXxHVVfHy8u7u7ciwHfMVs3ryZl8S+5MM8qK0wPT190KBBrq6uuIYbPnw4G21T7cgTajeX1LVck8cwynuQDGV7yj7shxw9PGZSKUfIII/RgnaP0Q8EUXwQlL92lJ3CwkJ7e3v2e0/58eDBAyhLRkZGeRyCgPYjwqcD73aIlNAJvFRA11CDpk8HeQxBGBlNHtOl+LgOiK+4+kFYTU5OnjJlCq6o0tLSWEkk1qpVC/EbYoEwKR/LwdnZeebMmbxOxHWepbbCgoKChg0bjhkzZvfu3dhpTEwM65VwWDHyhNrNWc1Cy6WSPEYq50EylO0RLqPLOEiGWo/p2LFj/p/w7r4sXY8RMiqOx+BC/OeffxZTjUp5eIxhOXbs2NKlSyFGeLuGh4fb2NjAk8RCLxW6H1G/fv1aqbh27ZqYpzNRUVGsEnZ/VoA8hiCMjBaP4eM6PHr0qEGDBvi48txhw4aFhYVh4eHDh9bW1vPnz2fpuPyqU6dOiR6jqcLMzEyEUvk9aY78Zo2mzdmyvOWMEj2mXAfJULZH8JgyDpKh1mPYDQIGCvB0/UbIqDgeA3f8+uuvxVSjUvE9JiMjIyAgwMHBAZEYn8H/a+/sg6o6zvgvV9ABlBcRKGIELFIRUFERlBgjKkkMKvI2GGGwatSZFE00g9aUWqdG8quKgHVCRB2qjS8oKuhMiQgaFRHfCNEIQS0aRXtBkZMm6cRJ29/3d/eX7fG8cUS8F+T5/MGcu7tn9zmHZ5/97r3n7KKXSUt0NTrVFZGOIQgLo6Fj+LoOmPdghJs3bx4G9RUrVqSlpSGIBAQEIOvy5cvIEr8Fg6w2dYxahRAow4YNGzRoECZAGFDFTxWIxYHa6SxXbDmjTR3zXBfJkNsj0THPuEiGoo4ZM2bMlZ/5+uuveXr7Vsh43jrGaDR+//33jx49wv2EgGOJt27dOnnyJOz897//zVLgHsOHD8/MzMTkmxf76aefLl26BJeQfE9TX19fXl6OG/j48WNxeofT+XUM8VwhHUMQFkZDx/CH7DAeYITDYP8HERhOkFVRUYEs8QuKGIbVdMysWbNYlkaF9+7dy8rKioqK6tu3L+ZbNTU17FyxONA4XZA9Hijo0DHPdZEMuT16Hs/Uv0iGoo6RXyNPb8cKGc9bx0BdzZ07d8CAAaNGjTp48CBS2AspbM4NTYYbi8RVq1bZ2dkhZfTo0SiAlLq6OszIhw4diutydXX929/+hkTontjYWNQG5YebExkZ+WRrHQzpmG4O6RiCsDB6dAxmxgaDYdeuXU8W+X9gULSysiosLOQpvr6+fLjF6PL+++/zrODgYJalUSEHgsbPzw9ihX18U7TyhPbpct2grWOe9yIZcnv06Bj9i2Q8rY4Rnn6FDDPoGGgRJlYYd+7cYQcQJTExMb/97W/ZR/HvSv/5z3/CwsLS09PZR1ju7u7+/fffQ/va29vjgKXDfnbwnCAd080hHUMQFkaPjgGJiYkY9viztOfPn+cDXnR0NEYXtggbaoPC4MNtamoqZE1DQ0NraytGesgFnqVY4dWrVzEdf/TokWASK5iR84VYJCtPKJ7OjuW6QaJjzLxIhtwePTpG0L1IRjt0jPCUK2SYQcdIBgNolOPHj2dnZ//xj3+cMWPGa6+9xtLFOobtPQQZWv0zjo6O586dgwbq1avXunXr6uvreYXPD+iYXxDdGNIxBGFhdOqY+/fvJyUlWVtbOzs7Y0DF36ysLJZVV1cXFBRkY2Pj5OSEs8S/K2EsDwwMxFmYH2M0EmcpVghd4ubmhkHI09Ozd+/eUVFR/BlbycoTiqezknLdINExPUyYbZEMuT06dYzORTLap2OEp1khwww6ZteuXeIUuEpwcDCuC/IXZkMXsnSxjoGCwf1/7UngQsiCQn399dfhGIMHD963b9/PtT4X6PuYbg7pGIKwMGo6RpHGxkaME1evXpW8bNza2nrx4sUvv/wSxwkJCeKvDZCFcV3y+wVHsUIMq0i8deuWqKAyiqebjU6ySIYZVsgws465efMmBMq3337LPqanp3MdExISsmPHDnYMD4HBuPnso5wff/wRMggKm1fV4fzwww+kY7o5pGMIwsI8lY7Rg0THEO1G5yIZZlghw8w65vbt2z1MzzjjGBfl7u7OdczMmTOXLVvG32CKiIiIj4//7rvv/mv6Kaq8vPynn36Cvvn6669ZgYqKip49ez6nJWf27t0LXbV27Vrp/SK6E6RjCMLCdLiOefvttztw86DuTOdZJMPMOgYsX77c1tbW39/f19f33Xff5ToGumTo0KG9evUKDw//r2lZvKioqD59+vzqV79ycnIaOXLk48ePUcbZ2XngwIEBAQE4+Pjjj8U1dwg//PDDkiVLXnnlFQgm+j6mm0M6hiAsTIfrGOLFQ6xjfvGLX0gOnhNNTU1QCT/99JM0Q8Y///nP2tralpYWnoKzGhoacPq//vUvUcE2wFlbtmyZOnXqL3/5S/zFsWLrqBYKZunSpVAz/6XnY7o9pGMIwsKQjiHaxCI6xsxAssTExCQnJ3/xxRffffcd/uIYKRIps3fv3oCAAPGzw6RjujmkYwjCwnR+HWM0Go8cObJ169aCggL50m0aZGRk5ObmSlOJp6c76Jg///nPSUlJkkSkIJ0di39LEpfpojrmypUrfBluHJ80UVFRgS4m3kOjHXSSDpuWlpZggi0Jwa+Rw1Z7Et8HxoULF06dOoWbkJmZyWo4d+6cuIAE0jEEYWHUdMyCBQv42i0WpLS01MPDw9XVNSwsbPDgwQaDgVmlx7zY2Fh6UqdD6A465rXXXvviiy8kiUhhS9fU1NSIf0sS0yV0jLy/SBYjsLa27tevn5OTE7qYg4NDSkrKjRs3xOV10nk67MiRI+Pi4nbs2MHWbsA1whg7EeyRdsliBOvXr7exsfn4448F0x5qOF3tJT4O6RiCsDBqOua1JxfXtxS+vr7R0dF8o6Vr166dOXNG6DTmdRP+t+bXC438tSakwAMfPnwoLSqiS+gYeX+R6Bh+3NTUdOjQIX9//0GDBjU0NPzvBH10ng4rWVdJz6JKv//973v37v3Xv/5VXIB0DEF0dhR1TGZmJiZVCEkxJj755JOFCxeKC+Tk5Pzud7/DQXp6+rZt2xDKx4wZExoaumXLFnGxgoICxK+goCCEtlOnTomzODdv3iwpKVFcic5oNCKI5OXlSdIl5tXV1Qk/W7Jx40aYkZycjJS1a9dye5C7ffv27OzssWPHhoeH8/RHjx5hmhgcHDxu3Ljc3NwNGzagzP9vhvgZ+j6GfR+zZMkSnd/HyL1RUO8Ora2t8NVRo0bJnfDdd9/dt28fL4l/hNg/FSusrKyMj48fPnx4SEhIUlJSfX29Yn9R0zEMnGVnZ/fee++JExldpcM+rY7BrcYlHz58WFKAdAxBdHYUdczJkycRBRAid5q4cOFCz549y8vLWS4mW66urmxNtokTJ7q7u8+cObOwsBDxxcbGBrGJFUPosbe3R2JxcfHKlSttbW35NgJi1NbMZXh5eY0ePbqsrEy8yJvEvMbGRsFkyYABA9588838/Pz9+/cLsmVzPT09Y2Nj9+zZs3r1aoPBAKuQDsMcHR0RCg8cODBlyhRcCy1+I6c76Bg9z8csXbpU5/Mxcm/U6A5I7NOnDwZ76BKMqWInVNsxXlCpsKmpCX1z/vz5R48eRbtpaWmXL19W7C/aOkYwtQWFJEkUuk6HleuY8ePHG3+mublZnP7rX/8a1R47doyX55COIYjOjqKOEWTfA4s3W/7LX/6CAMqDkbe3N9sRSTAtp+bn5yeYVu7v378/evjPFQhz5syJi4vjHzkIvohNfP8BCcePH/fx8UEowVRp8uTJXCTJv6aGJUOHDhU/oigJi4hrPBdVIQtBH+NHTk4OS4QNLi4uamGxO9MddIzO95X27dsXEBCwd+9enqKmY8TeqNEdMCtwcnLasGEDS797966Dg0ObOkatwurqanQW8Z5ZDHl/aVPHLFu2rF+/fpJEoet0WLmO6SECuTzdysoKKRBMvLAY0jEE0dnRqWMKCwsRmJh2efXVV+fOncvSEW5SUlJ4scOHDyMoIL5UVlai/8+bNw8hb8WKFZgXRkREYADgJfWDWHbixImMjAy0hTqXLFkiyMwTTJZgGipOkYRFcXmUnD59+oULF1AhJqw8ferUqWphsTvTHXTMf59y/Rj+G5OajhF7o0Z3gPshS/zKDLLa1DFqFULfDBs2bNCgQZhRYPTlz6nI+0ubOgY1uLm5SRL10Ek6rFzHjBkz5srP4J/I00eMGDF27FjcNMW3q0jHEERnR6eOQWzy9vbetGlTTU0NlMrnn3/O0hFuFi9ezIsdO3YM3b6hoaG8vBwHCIV/EJGZmclLtg+0ZWNjg2CtGBafdjtGzCx7mNa/5+nir50IjljHEP998jcmNR0j9jeN7lBRUYEs8QZk4u1UJTpm1qxZLEujwnv37mVlZUVFRfXt2xd9Fh1WkHVnQYeOmTx5cmhoqCTxabFgh5XrGPk18vS7d++GhIR4eXnJpQzpGILo7KjpGESNRYsWiVPWrFkTFBSE4BIcHMwTJ5rgH7Ozsx0cHHBw69Ytg8Gwa9cuntUh5OTkQEUhUsvNa0dYvH//vrW19c6dO1liS0vLwIED1cJid4Z0jCL79u1T219J4m8a3QEjKFy6sLCQp/j6+nInxBD7/vvv8yx0PZalUSEH3cTPzw9aR1Dqzto6BhOVnj17ZmRkiBPbgQU77FPpGMH0j8B/E8pPsqkt6RiC6Oyo6RhMpDAbu379OmIQ+5X673//e+/evW1tbfnv04Ip3CDeffrpp4LpHUsfHx++AkRiYiKCAn+Y8fz584rhoLi4GJUobhnd3NyckJBQWlpqNBoF035D/v7+iDWCknntCIs4mDt3LmxGEzAeddrZ2amFxe4M6Rg11Pa7lnujRneIjo4ePXo0W64NtxoChTthamoqZE1DQwOcHP0OfY1nKVZ49erVgwcPsufVoHXg22zVFnl/kegYGFBdXX3p0qXPPvvsgw8+6Nu3L3KbmppYATFdpcM+rY4RTFJmzJgxqF/8gBHpGILo7KjpmJqamrCwMKgWdOMLFy6wxPj4eAQ4zIp4MYQbxJERI0a4uLgg/k6YMIEHOBRLSkrC/MnZ2RnhBn+zsrL4iRyN1x8ePnwYGRkJG1Azs2TSpEnsW2W5ee0Li4iqs2fPtre3h3koEBUVhZGDFyMYpGM00KljNLpDXV1dUFCQjY2Nk5MTThT/roSBPzAwEGfBRWfMmCHOUqwQssbNza1Xr16enp6YdcCf2QO58v4i0TE9TEAnoSOjF2/atEnxzWqh63TYdugYcOfOHYmUIR1DEJ0dNR2jCALcggULxCk83Fy+fJn9Ei+hsbERsRXTRPF7mE8FJnmoGXM7xSlgBwILvby82PvkhBjSMRoo6hg11LpDa2vrxYsXv/zySxwnJCSIv2NAFvxf8mMHR7FCjMFIvHXrlqig+egkHRY6BqEJKqrdkQdaDaeTjiGIzo5OHYP+nJ2djcmf+GUBQTZt6nKcPn168+bNlZWVZWVlGD8wGcWETFqo20M6RoOn0jF6kOgYQoz+DjtjxowhJq5fvy7N08fSpUtZDWwHAzVIxxCEhdGpY4YPH+7r6ytZrlcw/bSfnp4uSexCYNYYERHh7e2NaBUTE1NdXS0tQZCO0aTDdczbb7/dgdsMvWB0wg5LOoYgLIxOHUN0Z0jHaNDhOoboWpCOIQgLQzqGaBPSMRqQjunmkI4hCAujpmMyMjJyc3OlqR2NeVphGI3GI0eObN26taCgQL7alQbmNLJzQjpGgw7XMeb0tytXroiXEibaAekYgrAwajpG/A5kR7FgwQK2mgUnNjbWPI8ClJaWenh4uLq6hoWFDR482GAwcEvkVkkwm5GdFtIxGjy7jpF4oDn9Te1tZAlt9pHuDOkYgrAw5tQx8rXJzYavr290dDTfbubatWtnzpxhxxa0qqtAOkaDZ9cxFvRAnTrGghZ2fkjHEISF0aljtmzZgngXGBiYmJgofkfgwIEDb7zxRkBAwCuvvMK3TyopKWErhIaGhqampn7zzTdIRK6Hhwf0RIyJuro6JK5du1b8DpRiK+np6du3b8/Ozh47dmx4eLj8nSnOzZs30bR8/S6j0dijR4+8vDxJuqBkFZrbtm3bxo0bYXxycrLwpJEaxjx69Ahz1uDg4HHjxuXm5m7YsAHFeG6XhnSMBoo6Ru5Fip1CUPLAjvU3tU7BEOsYtbbkFv7vfIJ0DEFYHD06BmVsbW0zMjIKCwunTZvm4uLCltjKycmxsbFZvnx5UVERIiBfSGbdunWIxYcPH969e3dYWNj48eORePLkyZEjR2Jit9ME2zpbTysTJ0709PSMjY3ds2fP6tWrDQZDcXExO0WCxkqjXl5eGELKysoki2LJrUJzAwYMgGH5+fn79+8XZMuMqhmzcuVKR0dHDAPQdlOmTHF3d39hVgEhHaOBoo6Re5FipxCUPLBj/U2jUwhP6hi1tuQWPlFFt4d0DEFYmDZ1DGZyTk5OfNNdfHzppZfS0tIePHjg7Oy8atWqJ06TgQDKVyKXfzvdZiuCKbwijLI9WQTTNrxqP3idPXsWwZ0txC7h+PHjPj4+sMTOzg41YK7MsyRWobmhQ4fy5gSZjlE0pqmpqU+fPnznKdgAHaY4rnRFSMdooKZjJF4kRtwpBJkHdqy/aXQKQaZjFNsSZBYSYkjHEISFaVPHVFdXI+ZWVlbyrOTk5Ndffx3xEel8mzoxN2/eXLZs2YQJEwICAvz9/a2srDBlFJSiYZutCKbwKj5r/vz506dP5x/1gwB94sSJjIwMVIi2lixZwtLlOgZN8I+CbFxRNAZjEuoUL3Y8depUxXGlK0I6RgM1HSPxIrVOIcg80Jz+JtExim0JMgsJMaRjCMLCtKljKioqEDHFeyctXLgQ4RiaAOmK62mOGjUqMjLy0KFDUDnnz5+3sbFhG2LLo2GbrQim8Kq4Y9yzsHjxYljFHhqQ65h2bF/HVB3bEo8xbdq0dowrnRPSMRqo6RiJF6l1CkHmgeb0N4mOUWxLkFlIiCEdQxAWpk0d09jYiLnj7t27eVZ4eHhKSsrt27cNBkN+fv7/zjFRX1+PCHvp0iX2EQf4yEI26ly0aJG4cJutCJrhtd3k5OSguXv37gkyq+QjkJ5x5f79+9bW1jt37mTpLS0tAwcObMe40jkhHaOBHh2j0SkEmQea09906hh5zyU4pGMIwsK0qWNAXFxcYGAgYjGO8/LyoADKy8txHB8f7+Pjc+7cOcH0REtJSYlg+qkec022Ce3du3cjIiJQnoXsxYsXh4aGXr9+HQKC/QyvpxWN8CqhuLgYheW77DY3NyckJJSWlhqNRsG0RYu/v39ISAjLlVjVPh0D5s6di7uBVq5du4Y67ezs2jGudE5Ix2igR8dodApB5oEd629qnYKhU8fIey7BIR1DEBZGj465ceMGgp3BYHB0dGSvFLH0xsbGWbNmISK7uLj06tWLPc4C1q9fj4/u7u729vYffvghIiwL2TU1NWFhYaiBP+SopxWN8CpB7dUMaKzIyEjUicpZ65MmTeLfyUusareOQYifPXs2LtnZ2RlloqKiUlNTeckuDekYDfToGEG9UwgyD+xYf1PrFAydOkbecwkO6RiCsDBqOkZObW3t2bNn5S8+NDQ0IJ19j8K5c+dOZWWl2ixQA7VWnp3m5maE46qqqnZY9bS0tLR4eXmx+fcLAOkYDRR1jCLt7hRt8oL5W9eCdAxBWBj9OobQ5vTp05s3b8ZAVVZWlpCQ4OLignFLWqhrQjpGA/06pmN5gf2ta0E6hiAsDOmYjqKqqioiIsLb23vIkCExMTGKb3J1UUjHaGApHfMC+1vXgnQMQVgY0jFEm5CO0cBSOoboJJCOIQgLQzqGaBPSMRqQjunmkI4hCAujU8dkZGTk5uZKU7sHV65cOWmioqLiq6++6obvnZKO0YB0jDZGo/HIkSNbt24tKChA95Fmq9NVYg7pGIKwMGo6ZsGCBWvWrOEfY2Njf/Ob34jynwuSRjsJb731lrW1db9+/ZycnAwGg4ODQ0pKyo0bN6TlZHTOy2kHpGM0eJF0TId7bGlpqYeHh6ura1hY2ODBg9F9eP1ttmWemPPskI4hCAujpmMsshK5RRptE/EaG01NTYcOHfL39x80aFBDQ8OTBaV0zstpB6RjNHiRdEyHe6yvr290dPSDBw/Yx2vXrp05c4Ydd3hbloJ0DEFYGEUdk5mZiVkUYlCMibq6urVr127ZsoXlpqenb9++fePGjSEhIePGjdu3b19ra2tGRsbo0aNfffXVo0ePiqsqKChAwAoKCkI4O3XqFEusrKyMj48fPnw4akhKSmJrz8gbLSkpgYZAtaGhoampqd988w2vVqcNKLZt2zaMNGPGjEEl/BLk3Lx5E82xHZckiHUMAwbb2dm999577KOinfLLYYUVb0gnh3SMBmo65sCBA2+88UZAQMArr7wCZ+DpcEK4U2BgYGJiovglI/0uracYQ83ZWCXZ2dljx44NDw9n/ULRYxW7qgS1vmM0Gnv06JGXlydJF5TaYl0V14VOlJycjDLymCMxmPHo0aM1a9YEBwfjbuTm5m7YsAHFeK4ZIB1DEBZGUcecPHly5MiRiIA7TTQ2NkrWGB0wYABG7r17977zzjvW1taIOykpKfg4f/58DPCIa6wkwo29vT2iTHFx8cqVK21tbc+ePdvU1OTq6oqSiLn79+9PS0tj2/bKG123bh1i2eHDh3fv3h0WFjZ+/HhuoU4bUMzd3X3mzJmFhYUww8bGBrGSVyJGY9lTuY4BCL4YHtixop3yyxFUboi42s4J6RgNFHVMTk4OnG358uVFRUUYgPk6ubiTbK1qOOS0adNcXFxu3brFsvS7tJ5igqazoRJPT8/Y2Ng9e/asXr3aYDCgjNxj1bqqBI2+4+XlBYFVVlbW0tIiTpe3xa4LcSY/Px9tCbJ1tOUGsyxcmqOjI7QLhOOUKVPQ3xX3Z3h+kI4hCAujqGME2be+kpiC2MSOMRdE9MEMiX1EtHJ2dt6xY4dg2g2gf//+6OQsC8yZMycuLg5zUES92tpans7R+KoZUVK8JrpOG1DM29sbMzaWtXTpUj8/P3YsASEeAVFxHWFFHbNs2bJ+/fpJEoUn7ZRcjtoN4R87LaRjNJDrmAcPHsADV61aJUmHAzg5Of3xj3/kH1966SWIA/ZRv0vrKabtbKgEMoI/sT558mTWuyUeq9FVxWj0nePHj/v4+KASCCy0Ip5FSNqCSUOHDhU/RC+JOYoGQ2n16dMHqpGlwwZIQ9IxBNG9aJ+OEWeNHTtWvC1LQEDAunXrBNM30ohf8+bNQ4xbsWIF4nVERARyEWGHDRs2aNAgqArMVvlv54KsUcwsIRcmTJiAs/z9/a2srDDlYlk6bUAxtmk24/Dhw6hEMeBqoKhjYLybmxs7VrNTcjlqN4QX6LSQjtFArmMwruMfLf+mjckCuAFPSU5O5ruS6XdpPcW0nU1Syfz586dPny7IPFajq+oH4uPEiRMZGRloFCYtWbKEpct1DMzgHwXNmMMNxoQBdYq/JZo6dSrpGILoXrRPx4hDZ1hYGGIl/xgYGMhmnOXl5QgxiIB/EMEeFLh3715WVlZUVFTfvn29vb1ramrYuZJGR40aFRkZeejQIQwJ58+ft7Gx4Vvr6bQBxRYvXszTjx07BpPafD5XgqKOwYwwNDSUHavZKbkcjRvSySEdo4Fcx2DYxj9avsBuRUUF0rm3g4ULF0L+smP9Lq2nmLazSSrhW0LKvxBV66rtA50RvYM9SSPXMZKdNTViDjeYSUa+5yuYNm0a6RiC6F6o6RiEiUWLFok/qsUUtUh669Ytg8Gwa9cuniUHUdLPzw/Rln0UN1pfX48IdenSJfYRB/jYDh0DeHp2draDgwP/qBO5jvn888979uzJduTWsFNyD/XckM4J6RgN5Drm9u3b+Efn5+dL0hsbG62srHbv3s1TwsPD+feF+l1aTzFtZ1OTBRKPFSPpqu0jJycHdwBVCbK22qdj7t+/b21tvXPnTpbe0tIycOBA0jEE0b1Q0zGYOYWGhl6/fh1Bp7W1VSOmqEVSkJiYiDkc/4L9/PnzRUVFV69ePXjwIHtmBdHWx8eHLyMhbhQRClM3toXv3bt3IyIiEAHboWMgONhZ165dQ1tqK1IUFxejsOJexOxdJEyvoVE+++yzDz74AHNTKJumpibB9JO8mp2Seyio3BDeUKeFdIwGch0D4uPj4Wznzp0TTL/OlJSUsPS4uDg4J3vrJy8vD65SXl7OsvS7tJ5igqazqckCicdqdFUxan2nubk5ISGhtLTUaDQKpg2h/P39Q0JCWK6krfbpGDB37lwYhlbQwVGnnZ0d6RiC6F6o6ZiamhqESFtb2x6mp1Y1YopGJIUWSUpKwoTJ2dkZ8QV/s7KyEFjd3Nx69erl6enZu3fvqKgo/sCKpNH169ejmLu7u729/Ycffoga2qFjENRGjBjh4uKC6emECRPk0Zah8c4FdEwPE5BEqAeVQLWI3zJVs1NyOYLKDeH1dFpIx2igqGMaGxtnzZoFmQKHgW/wh2Bu3LgBBQxXdHR0ZC8u8VP0u7SeYoKms6nJAonHanRVMWp9B30kMjISteF6WZ2TJk3ivwFJ2mq3joEMmj17NroeLhBlYGRqaiovaQZIxxCEhVHTMR0IYjoCIuZ24ncva2trkchfOlXjzp07lZWVauKjTXj4u3z58jP+tK/NU9mpeEM6M6RjNFDUMYyGhgb8o+VrrjDnV9QEHc6zO5vOrqpGc3Mzul5VVZXO3vEs4Bq9vLzYl6Nmg3QMQVgYM+gYCyKf5BHtgHSMBho6hjADp0+f3rx5M2YRZWVlCQkJLi4umFRICz1PSMcQhIV5sXVMdHR0enq6NJV4SkjHaEA6xrJUVVVFRER4e3sPGTIkJiZG/prY84Z0DEFYmBdbxxAdAukYDUjHdHNIxxCEhSEdQ7QJ6RgNSMd0c0jHEISFIR1DtAnpGA1Ix3RzSMcQhIV5AXSM0Wg8cuTI1q1bCwoKvvrqK2m2OhkZGbm5udJUQgbpGA106pju7GxXrlw5aaKiogI9VLyJ0gsA6RiCsDBPpWMWLFiguBCWHP0ln5HS0lIPDw9XV9ewsLDBgwcbDAbebps2xMbGqi2LR4ghHaOBoo6R+54ZnE3eaCfhrbfesra27tevn5OTE3qog4NDSkrKjRs3pOVkdNorEkM6hiAszFPpGPn2K2roL/mM+Pr6RkdH8x3srl27dubMGXZsNhteeEjHaKCoYyziexZpVA/inT2ampoOHTrk7+8/aNCgNnc667RXJIZ0DEFYGDUdU1lZGR8fP3z48JCQkKSkpPr6+szMTA8PD+iGGBN1dXUlJSVszf7Q0NDU1NRvvvmGnSsv+e677+7bt49Xjkazs7PVGuLFODdv3kRb4iV0GUajsUePHnl5eZJ0QckGJKanp2/btm3jxo0wODk5ee3atVu2bGHlkbV9+3ZYNXbs2PDwcJ4OHj16hElhcHDwuHHjcnNzN2zYwI3vJpCO0UCuYxR9T+5s8EP4PJwKXaO1tTUjIwNd6dVXXz169CivqqCgAGN5UFAQxPqpU6d4urzXKDaq1kP1G8C6DK5xzJgxqETcL8So9VCGfIcyGGxnZ/fee+8J6kYqXpHaDbEgpGMIwsIo6hjMmVxdXefPn4+Itn///rS0tMuXL588eXLkyJEIIjtNNDY2rlu3DtH58OHDu3fvDgsLGz9+PDtdXlK8XDpAVGJ7oCg2xItx1BY+B15eXoiAZWVlkuVK5TYIpmXxBgwY8Oabb+bn56M5ycLnnp6esbGxe/bsWb16tcFgKC4uZlkrV650dHSEdjlw4MCUKVPc3d3NvIGLxSEdo4Fcxyj6nsTZ4IcYvPfu3fvOO+9YW1tDVaekpOAj+gIGeMgCFINosLe3h4aGK8IJbW1t2WZJir1GsVG1HqrTAFYSDj9z5szCwkJYYmNjA1nDssRo9FBBSccIpiAAOSKoGym/IrUbYllIxxCEhVHUMdXV1YhKtbW1knSNr3kRwvguQoKspJqOUWtIAqIVwpbiOu7Hjx/38fFBJQi+kydPFgdZubUIykOHDuWPGUqGFgRNnoWqWBbGjD59+uTk5LB02ODi4kI6huDIdYyg5HsSZ4P4ZsdwOUiK8PBw9hFy3NnZeceOHQ8fPuzfvz/GSJYO5syZExcXJ6j3GnmjYsQ9VI8B7CNKent7s60iwdKlS/38/NixGI0eKqjomGXLlvXr10+SqBFGNG6IZSEdQxAWRlHHIGQMGzZs0KBBCFtFRUX86RNJoMSkDcFowoQJAQEB/v7+VlZWBw4cUCyppmPUGnoqEIhPnDiRkZGBmIsguGTJEpYuD+sogOkm/ygZWsSFUWz69Ok4QEhFneJviaZOnUo6huC0T8eIc8eOHSvePQO9ad26dZWVlXC8efPmQR+sWLEiLS0tIiICWYJ6r5E3qtZD9RjAjlEyJSWFZx0+fBiVqOkVNRR1DIx3c3MT1I0UnrwijRtiWUjHEISFUdQxgmkX2aysrKioqL59+2JCxjZZlATKUaNGRUZGHjp0CLOx8+fP29jY8P2otXXMrFmzuBRQbKjdLF68GGaw3+nlYX3ik9st6dlQF5eG6Mk36QXTpk0jHUNw2qdj2tyzury8HI6Hwf4PIjIzM1kZxV4jb1Sth+oxgB2jJPoUzzp27BisavP5XAmKOmby5MmhoaGCupHCk1ekfUMsCOkYgrAwajqGg4jp5+eH8CGYYvGiRYtYen19PcLKpUuX2Ecc4CMPQOKSAFHs/fff5x+Dg4PlUkDcULvJycnBfA5VCTIbBFn41hhauI65f/++tbX1zp07WXpLS8vAgQPlxr/YkI7RQFHHyH1Pw9kUZcStW7cMBsOuXbt4uiJq3VPQ7KF6DGDHE03wrOzsbAcHB/5RJ3Id8/nnn/fs2TMjI0PDSOHJK9J5Q8wP6RiCsDCKOubq1asHDx5kP4ojfPj4+LBVHDAzwxTq+vXriJ4Y4DFz2rRpE9Lv3r0bEREBAcEDkLhka2tramqqr68vpnE4htRACGNSQK0hCcXFxQimaEWS3tzcnJCQUFpaajQaBdOOcf7+/iEhISxXYoMgC98aQwvXMWDu3LkwDK1cu3YNddrZ2ZGOITiKOkbuexrOpiYjEhMTvb29+aOs58+fLyoqEtR7jaTRf/zjH2o9VKcBgqkkeis7C/6PthRXwVHroQz2OlJ1dTVkymefffbBBx/07dsXyqapqUnDSEF2RWo3xLKQjiEIC6OoYxAp3NzcevXq5enp2bt376ioKPaLeE1NDUKera0texZv/fr1KOPu7m5vb//hhx9igOcBSFISkQjB0draGiVnzJgxffp0JgXUGpKg9jbEw4cPIyMj0QomaqytSZMm8d+AJDYIsvCtMbSIdQxi6OzZs2G5s7MzysBIyDJesjtAOkYDRR0j9z0NZ1OTEZgqJCUlodfA8dC58DcrK0tQ7zXyRtV6qE4DBFNJdNURI0a4uLigl02YMEFRrKj1UAZ0TA8TkESoB5VAuPCXtNWMFGRXpHZDLAvpGIKwMIo6hlFbW4uIiQmfNEPEnTt3KisrFUObBEynEJUwpZNm6GtIg+bmZtRcVVWlx4xnpKWlxcvLi00fuw+kYzRQ1DEdSGNjI3rH1atXJSsL6Ow1+nuoIlzxXL58Gb1Mmt1BPJWRajfEUpCOIQgLo6FjCMbp06c3b96MOFtWVpaQkIAJJcKutNALDekYDZ63jrEskm9uCDmkYwjCwpCOaZOqqqqIiAhvb+8hQ4bExMRUV1dLS7zokI7R4MXWMdHR0enp6dJUQgTpGIKwMKRjiDYhHaPBi61jiDYhHUMQFoZ0DNEmpGM0IB3TzSEdQxAWRqeOyczM3Lx5szS1Q8nIyMjNzZWmtkX7zmofRqPxyJEjW7duLSgo+Oqrr6TZ6pjTyOcB6RgNoGP4dhZEd6O+vv6TTz6RuATpGIIwKzp1TEJCwvNeNCU2NlZxaQoJCxYsEK8xo/OsZ6e0tNTDw8PV1TUsLGzw4MEGg4GbITFJjtmMfE6QjtHg9OnTBw8e/Pbbb6V3jXjRuX79+sqVK3/88UeJS5COIQiz0nl0jE7ki6+bB19f3+joaL6XzbVr186cOcOOLWWS2SAdo01hYeEGovvxySefPH78WOoNpGMIwsyo6ZjW1ta1a9eOGjVq3Lhxubm5Eh1TUFCAwTsoKAhD+6lTp1hiZWVlfHz88OHDQ0JCkpKS6uvrWfqBAwfeeOONgICAV155he+Hkp6evm3bto0bN4aGhiYnJyMFzW3ZskWc+9FHH40ZMwYFeDpO9/DwgKSIMVFXVyc+C+D45ZdfDgwMTExMFL9YhAq3b9+enZ09duzY8PBw8Slibt68WVJSwlfo4hiNxh49euTl5UnSBSWT2rw0NUsePXq0Zs2a4OBgds8RKFGM51oQ0jEEoR/SMQRhVtR0DAbUPn36YJCGZIEycHd35zoGQ6+9vT0KFBcXr1y50tbW9uzZs01NTa6urvPnzz969Oj+/fvT0tLYHtE5OTk2NjbLly8vKirC+M3Xopg4ceKAAQPefPPN/Px8lBdkC56ixZkzZ2Kmi4ZQA5QB0k+ePDly5EhIqJ0mGhsbxWfhWmBMRkYGzpo2bZqLiwtfJQwVenp6xsbG7tmzZ/Xq1QaDAcazLDEay5J6eXmNHj26rKxMsvqW3KQ2L03NEtxMR0dHaBcovylTpojvuWUhHUMQ+iEdQxBmRVHHPHjwwMnJacOGDezj3bt3HRwc2Jj68OHD/v37/+lPf+KF58yZExcXV11dDQVQW1vL0wVTPc7OzqtWrRInMjCcDx06VPyApGSw9/b2ZjvIgKVLl/r5+bFjyY84/CwYBpv5eur4+NJLL0FOsY+oEGqDNzd58mTelhgIMogJxb0Rjh8/7uPjg2u0s7PD6UxXMSQmtXlpipZACEI4QvaxdNgAHUY6hiC6HKRjCMKsKOqYy5cvY8C+ePEiT4mIiGBjamVlJbLmzZuH8X7FihUQCsgKCAiAbhg2bNigQYOgOYqKithzJJAFKMz3dROD4Xz+/PniFMlgn5KSwrMOHz5sZWXF5IWajmFCCubxrOTk5Ndff50do0LxWWh6+vTp/KNOID5OnDiRkZGB2tDWkiVLWLpcx2hfmqIlFy5cQJ3sSyzG1KlTSccQRJeDdAxBmBVFHVNRUYExVbwXEt/Zsby8HFkQK38QwZ56uXfvXlZWVlRUVN++fb29vWtqajDqo7DiArgTZeudSwb7xYsX86xjx46hnoaGBkEmGvhZzGbxFjALFy6cMGECO5Y0J94Gsn3APBsbG/YkjVzHaF+aoiVM8/FNLsG0adNIxxBEl4N0DEGYFUUdc/fuXSsrq8LCQp7i6+vLxtRbt24ZDIZdu3b9r7QMCBo/Pz9ondu3b6Nwfn6+tIRsOBdkgz3gWdnZ2Q4ODrzYokWLeBY/q7GxETbv3r2bZ4WHh/MvddTUQ7vJyclBc7hSQWZSm5emaMn9+/etra137tzJ0ltaWgYOHEg6hiC6HKRjCMKsKOoYwbSvyujRoyFEBNMwBjnCx9TExERvb2/+a9H58+eLioquXr168OBB9kQLtI6Pjw9bUiU+Ph7H586dE0zPrJSUlLCz2hzse/bs+emnnwqmN5xRA19/ZfHixaGhodevX4eGaG1tFZ8VFxcXGBjI3pPKy8uDzigvL+cVKqoHCcXFxSgp33e3ubk5ISGhtLTUaDQKph2X/P39Q0JCWK7EpDYvTc2SuXPn4krRCi4ZddrZ2ZGOIYguB+kYgjArajqmrq4uKCjIxsbGyckJQy//XUkwfXOQlJRkbW3t7OyMsRZ/s7KyIGvc3Nx69erl6enZu3fvqKgo9jhLY2PjrFmzIClcXFyQK35gRXuwR3MjRozAWZBQEyZM4NqipqYmLCzM1ta2R48eFy5cEJ9148aNl19+GeUdHR3Zi0ssnVWoph7EqL2vBAUWGRmJOlE5a3rSpEn8NyCJSW1empolkEGzZ8+2t7fHLUUZ3MPU1FRe0oKQjiEI/ZCOIQizoqZjBNNjrRcvXvzyyy+lGSYgUKBdrl69Kn4Puba2Fon8bWdOQ0MD0vmKMm3CB/vLly+LH3nRA7NB8Z2jZ6S5uRnGVFVVyb+w6XBwV728vDZt2iTNsASkYwhCP6RjCMKsaOgYCyL/SqM7cPr06c2bN1dWVpaVlSUkJLi4uNy5c0dayBKQjiEI/ZCOIQiz0jl1THR0dHp6ujT1RaeqqioiIsLb23vIkCExMTGK73lZBNIxBKEf0jEEYVY6p44hOhWkYwhCP6RjCMKskI4h2uSjjz6S+g1BECqQjiEIs5Kbm6v/8VuiGwL3gJNI/YYgCBVIxxCEWfnxxx/T0tJIyhCKwDHgHnASqd8QBKEC6RiCMDePHz/++OOP/w9ByIBjwD2kHkMQhDqkYwiCIAiC6KqQjiEIgiAIoqtCOoYgCIIgiK4K6RiCIAiCILoqpGMIgiAIguiq/F/pRXoqNehKEQAAAABJRU5ErkJggg==;" vertex="1" parent="1">
          <mxGeometry x="310" y="250" width="749" height="554" as="geometry" />
        </mxCell>
      </root>
    </mxGraphModel>
  </diagram>
</mxfile>
